<?xml version="1.0" encoding="UTF-8" standalone="no"?>
<!DOCTYPE svg PUBLIC "-//W3C//DTD SVG 1.1//EN"
 "http://www.w3.org/Graphics/SVG/1.1/DTD/svg11.dtd">
<!-- Generated by graphviz version 2.42.4 (0)
 -->
<!-- Title: capability Pages: 1 -->
<svg width="630pt" height="592pt"
 viewBox="0.00 0.00 630.00 592.00" xmlns="http://www.w3.org/2000/svg" xmlns:xlink="http://www.w3.org/1999/xlink">
<g id="graph0" class="graph" transform="scale(1 1) rotate(0) translate(4 588)">
<title>capability</title>
<polygon fill="white" stroke="transparent" points="-4,4 -4,-588 626,-588 626,4 -4,4"/>
<text text-anchor="middle" x="311" y="-565.6" font-family="Noto Sans CJK SC" font-size="18.00">清结算平台能力地图：从业务事实到可提现余额</text>
<g id="clust1" class="cluster">
<title>cluster_core</title>
<path fill="none" stroke="#0f6cbd" d="M67,-96C67,-96 243,-96 243,-96 249,-96 255,-102 255,-108 255,-108 255,-536 255,-536 255,-542 249,-548 243,-548 243,-548 67,-548 67,-548 61,-548 55,-542 55,-536 55,-536 55,-108 55,-108 55,-102 61,-96 67,-96"/>
<text text-anchor="middle" x="155" y="-529.6" font-family="Times,serif" font-size="18.00">P0 核心闭环</text>
</g>
<g id="clust2" class="cluster">
<title>cluster_support</title>
<path fill="none" stroke="#94a3b8" d="M20,-8C20,-8 602,-8 602,-8 608,-8 614,-14 614,-20 614,-20 614,-76 614,-76 614,-82 608,-88 602,-88 602,-88 20,-88 20,-88 14,-88 8,-82 8,-76 8,-76 8,-20 8,-20 8,-14 14,-8 20,-8"/>
<text text-anchor="middle" x="311" y="-69.6" font-family="Times,serif" font-size="18.00">支撑能力</text>
</g>
<!-- source -->
<g id="node1" class="node">
<title>source</title>
<path fill="#e0f2fe" stroke="#0369a1" d="M208.5,-512C208.5,-512 101.5,-512 101.5,-512 95.5,-512 89.5,-506 89.5,-500 89.5,-500 89.5,-486 89.5,-486 89.5,-480 95.5,-474 101.5,-474 101.5,-474 208.5,-474 208.5,-474 214.5,-474 220.5,-480 220.5,-486 220.5,-486 220.5,-500 220.5,-500 220.5,-506 214.5,-512 208.5,-512"/>
<text text-anchor="middle" x="155" y="-496.8" font-family="Times,serif" font-size="14.00">标准业务事实接入</text>
<text text-anchor="middle" x="155" y="-481.8" font-family="Times,serif" font-size="14.00">Source Event</text>
</g>
<!-- policy -->
<g id="node2" class="node">
<title>policy</title>
<path fill="#e0f2fe" stroke="#0369a1" d="M235.5,-438C235.5,-438 74.5,-438 74.5,-438 68.5,-438 62.5,-432 62.5,-426 62.5,-426 62.5,-412 62.5,-412 62.5,-406 68.5,-400 74.5,-400 74.5,-400 235.5,-400 235.5,-400 241.5,-400 247.5,-406 247.5,-412 247.5,-412 247.5,-426 247.5,-426 247.5,-432 241.5,-438 235.5,-438"/>
<text text-anchor="middle" x="155" y="-422.8" font-family="Times,serif" font-size="14.00">清分结算策略</text>
<text text-anchor="middle" x="155" y="-407.8" font-family="Times,serif" font-size="14.00">Policy / Rule / Snapshot</text>
</g>
<!-- source&#45;&gt;policy -->
<g id="edge1" class="edge">
<title>source&#45;&gt;policy</title>
<path fill="none" stroke="black" d="M155,-473.94C155,-473.94 155,-448.25 155,-448.25"/>
<polygon fill="black" stroke="black" points="158.5,-448.25 155,-438.25 151.5,-448.25 158.5,-448.25"/>
</g>
<!-- clearing -->
<g id="node3" class="node">
<title>clearing</title>
<path fill="#e0f2fe" stroke="#0369a1" d="M233,-364C233,-364 83,-364 83,-364 77,-364 71,-358 71,-352 71,-352 71,-338 71,-338 71,-332 77,-326 83,-326 83,-326 233,-326 233,-326 239,-326 245,-332 245,-338 245,-338 245,-352 245,-352 245,-358 239,-364 233,-364"/>
<text text-anchor="middle" x="158" y="-348.8" font-family="Times,serif" font-size="14.00">清分引擎</text>
<text text-anchor="middle" x="158" y="-333.8" font-family="Times,serif" font-size="14.00">Clearing Result / Item</text>
</g>
<!-- policy&#45;&gt;clearing -->
<g id="edge2" class="edge">
<title>policy&#45;&gt;clearing</title>
<path fill="none" stroke="black" d="M158,-399.94C158,-399.94 158,-374.25 158,-374.25"/>
<polygon fill="black" stroke="black" points="161.5,-374.25 158,-364.25 154.5,-374.25 161.5,-374.25"/>
</g>
<!-- quality -->
<g id="node9" class="node">
<title>quality</title>
<path fill="#f8fafc" stroke="#475569" d="M593.5,-52C593.5,-52 474.5,-52 474.5,-52 468.5,-52 462.5,-46 462.5,-40 462.5,-40 462.5,-28 462.5,-28 462.5,-22 468.5,-16 474.5,-16 474.5,-16 593.5,-16 593.5,-16 599.5,-16 605.5,-22 605.5,-28 605.5,-28 605.5,-40 605.5,-40 605.5,-46 599.5,-52 593.5,-52"/>
<text text-anchor="middle" x="534" y="-30.3" font-family="Times,serif" font-size="14.00">幂等 / 一致性 / 补偿</text>
</g>
<!-- policy&#45;&gt;quality -->
<g id="edge8" class="edge">
<title>policy&#45;&gt;quality</title>
<path fill="none" stroke="#64748b" stroke-dasharray="5,2" d="M247.71,-419C359.92,-419 534,-419 534,-419 534,-419 534,-62.05 534,-62.05"/>
<polygon fill="#64748b" stroke="#64748b" points="537.5,-62.05 534,-52.05 530.5,-62.05 537.5,-62.05"/>
</g>
<!-- position -->
<g id="node4" class="node">
<title>position</title>
<path fill="#e0f2fe" stroke="#0369a1" d="M229,-290C229,-290 95,-290 95,-290 89,-290 83,-284 83,-278 83,-278 83,-264 83,-264 83,-258 89,-252 95,-252 95,-252 229,-252 229,-252 235,-252 241,-258 241,-264 241,-264 241,-278 241,-278 241,-284 235,-290 229,-290"/>
<text text-anchor="middle" x="162" y="-274.8" font-family="Times,serif" font-size="14.00">清算与头寸</text>
<text text-anchor="middle" x="162" y="-259.8" font-family="Times,serif" font-size="14.00">Settlement Position</text>
</g>
<!-- clearing&#45;&gt;position -->
<g id="edge3" class="edge">
<title>clearing&#45;&gt;position</title>
<path fill="none" stroke="black" d="M162,-325.94C162,-325.94 162,-300.25 162,-300.25"/>
<polygon fill="black" stroke="black" points="165.5,-300.25 162,-290.25 158.5,-300.25 165.5,-300.25"/>
</g>
<!-- billing -->
<g id="node5" class="node">
<title>billing</title>
<path fill="#e0f2fe" stroke="#0369a1" d="M221,-216C221,-216 103,-216 103,-216 97,-216 91,-210 91,-204 91,-204 91,-190 91,-190 91,-184 97,-178 103,-178 103,-178 221,-178 221,-178 227,-178 233,-184 233,-190 233,-190 233,-204 233,-204 233,-210 227,-216 221,-216"/>
<text text-anchor="middle" x="162" y="-200.8" font-family="Times,serif" font-size="14.00">结算单中心</text>
<text text-anchor="middle" x="162" y="-185.8" font-family="Times,serif" font-size="14.00">Batch / Bill / Item</text>
</g>
<!-- position&#45;&gt;billing -->
<g id="edge4" class="edge">
<title>position&#45;&gt;billing</title>
<path fill="none" stroke="black" d="M162,-251.94C162,-251.94 162,-226.25 162,-226.25"/>
<polygon fill="black" stroke="black" points="165.5,-226.25 162,-216.25 158.5,-226.25 165.5,-226.25"/>
</g>
<!-- test -->
<g id="node10" class="node">
<title>test</title>
<path fill="#f8fafc" stroke="#475569" d="M432.5,-52C432.5,-52 311.5,-52 311.5,-52 305.5,-52 299.5,-46 299.5,-40 299.5,-40 299.5,-28 299.5,-28 299.5,-22 305.5,-16 311.5,-16 311.5,-16 432.5,-16 432.5,-16 438.5,-16 444.5,-22 444.5,-28 444.5,-28 444.5,-40 444.5,-40 444.5,-46 438.5,-52 432.5,-52"/>
<text text-anchor="middle" x="372" y="-30.3" font-family="Times,serif" font-size="14.00">测试验收与质量门禁</text>
</g>
<!-- position&#45;&gt;test -->
<g id="edge9" class="edge">
<title>position&#45;&gt;test</title>
<path fill="none" stroke="#64748b" stroke-dasharray="5,2" d="M241.09,-271C300.62,-271 372,-271 372,-271 372,-271 372,-62.2 372,-62.2"/>
<polygon fill="#64748b" stroke="#64748b" points="375.5,-62.2 372,-52.2 368.5,-62.2 375.5,-62.2"/>
</g>
<!-- posting -->
<g id="node6" class="node">
<title>posting</title>
<path fill="#e0f2fe" stroke="#0369a1" d="M205,-142C205,-142 75,-142 75,-142 69,-142 63,-136 63,-130 63,-130 63,-116 63,-116 63,-110 69,-104 75,-104 75,-104 205,-104 205,-104 211,-104 217,-110 217,-116 217,-116 217,-130 217,-130 217,-136 211,-142 205,-142"/>
<text text-anchor="middle" x="140" y="-126.8" font-family="Times,serif" font-size="14.00">账务入账编排</text>
<text text-anchor="middle" x="140" y="-111.8" font-family="Times,serif" font-size="14.00">Accounting Posting</text>
</g>
<!-- billing&#45;&gt;posting -->
<g id="edge5" class="edge">
<title>billing&#45;&gt;posting</title>
<path fill="none" stroke="black" d="M154,-177.94C154,-177.94 154,-152.25 154,-152.25"/>
<polygon fill="black" stroke="black" points="157.5,-152.25 154,-142.25 150.5,-152.25 157.5,-152.25"/>
</g>
<!-- query -->
<g id="node7" class="node">
<title>query</title>
<path fill="#f8fafc" stroke="#475569" d="M269.5,-52C269.5,-52 162.5,-52 162.5,-52 156.5,-52 150.5,-46 150.5,-40 150.5,-40 150.5,-28 150.5,-28 150.5,-22 156.5,-16 162.5,-16 162.5,-16 269.5,-16 269.5,-16 275.5,-16 281.5,-22 281.5,-28 281.5,-28 281.5,-40 281.5,-40 281.5,-46 275.5,-52 269.5,-52"/>
<text text-anchor="middle" x="216" y="-30.3" font-family="Times,serif" font-size="14.00">标准查询与读模型</text>
</g>
<!-- billing&#45;&gt;query -->
<g id="edge6" class="edge">
<title>billing&#45;&gt;query</title>
<path fill="none" stroke="#64748b" stroke-dasharray="5,2" d="M225,-177.98C225,-177.98 225,-62.4 225,-62.4"/>
<polygon fill="#64748b" stroke="#64748b" points="228.5,-62.4 225,-52.4 221.5,-62.4 228.5,-62.4"/>
</g>
<!-- ops -->
<g id="node8" class="node">
<title>ops</title>
<path fill="#f8fafc" stroke="#475569" d="M120,-52C120,-52 28,-52 28,-52 22,-52 16,-46 16,-40 16,-40 16,-28 16,-28 16,-22 22,-16 28,-16 28,-16 120,-16 120,-16 126,-16 132,-22 132,-28 132,-28 132,-40 132,-40 132,-46 126,-52 120,-52"/>
<text text-anchor="middle" x="74" y="-30.3" font-family="Times,serif" font-size="14.00">运营诊断与审计</text>
</g>
<!-- posting&#45;&gt;ops -->
<g id="edge7" class="edge">
<title>posting&#45;&gt;ops</title>
<path fill="none" stroke="#64748b" stroke-dasharray="5,2" d="M97.5,-103.69C97.5,-103.69 97.5,-62.06 97.5,-62.06"/>
<polygon fill="#64748b" stroke="#64748b" points="101,-62.06 97.5,-52.06 94,-62.06 101,-62.06"/>
</g>
</g>
</svg>
