<?xml version="1.0" encoding="UTF-8" standalone="no"?>
<!DOCTYPE svg PUBLIC "-//W3C//DTD SVG 1.1//EN"
 "http://www.w3.org/Graphics/SVG/1.1/DTD/svg11.dtd">
<!-- Generated by graphviz version 2.42.4 (0)
 -->
<!-- Title: c1 Pages: 1 -->
<svg width="1118pt" height="242pt"
 viewBox="0.00 0.00 1118.00 242.00" xmlns="http://www.w3.org/2000/svg" xmlns:xlink="http://www.w3.org/1999/xlink">
<g id="graph0" class="graph" transform="scale(1 1) rotate(0) translate(4 238)">
<title>c1</title>
<polygon fill="white" stroke="transparent" points="-4,4 -4,-238 1114,-238 1114,4 -4,4"/>
<text text-anchor="middle" x="555" y="-215.6" font-family="Noto Sans CJK SC" font-size="18.00">C1 系统上下文：清结算平台边界</text>
<!-- ccs -->
<g id="node1" class="node">
<title>ccs</title>
<path fill="#0f6cbd" stroke="#0b4f8a" stroke-width="2" d="M699,-137.5C699,-137.5 478,-137.5 478,-137.5 472,-137.5 466,-131.5 466,-125.5 466,-125.5 466,-80.5 466,-80.5 466,-74.5 472,-68.5 478,-68.5 478,-68.5 699,-68.5 699,-68.5 705,-68.5 711,-74.5 711,-80.5 711,-80.5 711,-125.5 711,-125.5 711,-131.5 705,-137.5 699,-137.5"/>
<text text-anchor="middle" x="588.5" y="-122.3" font-family="Times,serif" font-size="14.00" fill="white">清结算平台</text>
<text text-anchor="middle" x="588.5" y="-107.3" font-family="Times,serif" font-size="14.00" fill="white">Clearing &amp; Settlement Platform</text>
<text text-anchor="middle" x="588.5" y="-76.3" font-family="Times,serif" font-size="14.00" fill="white">清分 / 清算 / 结算 / 入账编排</text>
</g>
<!-- acct -->
<g id="node4" class="node">
<title>acct</title>
<path fill="#fef3c7" stroke="#475569" d="M1093.5,-178C1093.5,-178 958.5,-178 958.5,-178 952.5,-178 946.5,-172 946.5,-166 946.5,-166 946.5,-152 946.5,-152 946.5,-146 952.5,-140 958.5,-140 958.5,-140 1093.5,-140 1093.5,-140 1099.5,-140 1105.5,-146 1105.5,-152 1105.5,-152 1105.5,-166 1105.5,-166 1105.5,-172 1099.5,-178 1093.5,-178"/>
<text text-anchor="middle" x="1026" y="-162.8" font-family="Times,serif" font-size="14.00">账户账务平台</text>
<text text-anchor="middle" x="1026" y="-147.8" font-family="Times,serif" font-size="14.00">账户、余额、账务流水</text>
</g>
<!-- ccs&#45;&gt;acct -->
<g id="edge3" class="edge">
<title>ccs&#45;&gt;acct</title>
<path fill="none" stroke="black" d="M711.23,-129.75C840.95,-129.75 1027,-129.75 1027,-129.75 1027,-129.75 1027,-130.77 1027,-130.77"/>
<polygon fill="black" stroke="black" points="1023.5,-129.98 1027,-139.98 1030.5,-129.98 1023.5,-129.98"/>
<text text-anchor="middle" x="826.5" y="-162.8" font-family="Times,serif" font-size="14.00">SettlementPosting 入账指令</text>
</g>
<!-- payout -->
<g id="node7" class="node">
<title>payout</title>
<path fill="#f1f5f9" stroke="#475569" d="M1098,-122C1098,-122 954,-122 954,-122 948,-122 942,-116 942,-110 942,-110 942,-96 942,-96 942,-90 948,-84 954,-84 954,-84 1098,-84 1098,-84 1104,-84 1110,-90 1110,-96 1110,-96 1110,-110 1110,-110 1110,-116 1104,-122 1098,-122"/>
<text text-anchor="middle" x="1026" y="-106.8" font-family="Times,serif" font-size="14.00">提现 / 出款平台</text>
<text text-anchor="middle" x="1026" y="-91.8" font-family="Times,serif" font-size="14.00">P0 不接入，仅后续衔接</text>
</g>
<!-- ccs&#45;&gt;payout -->
<g id="edge6" class="edge">
<title>ccs&#45;&gt;payout</title>
<path fill="none" stroke="#64748b" stroke-dasharray="5,2" d="M711.24,-103C711.24,-103 931.81,-103 931.81,-103"/>
<polygon fill="#64748b" stroke="#64748b" points="931.81,-106.5 941.81,-103 931.81,-99.5 931.81,-106.5"/>
<text text-anchor="middle" x="826.5" y="-106.8" font-family="Times,serif" font-size="14.00">P1/P2 可选衔接</text>
</g>
<!-- recon -->
<g id="node8" class="node">
<title>recon</title>
<path fill="#f1f5f9" stroke="#475569" d="M1065,-66C1065,-66 987,-66 987,-66 981,-66 975,-60 975,-54 975,-54 975,-40 975,-40 975,-34 981,-28 987,-28 987,-28 1065,-28 1065,-28 1071,-28 1077,-34 1077,-40 1077,-40 1077,-54 1077,-54 1077,-60 1071,-66 1065,-66"/>
<text text-anchor="middle" x="1026" y="-50.8" font-family="Times,serif" font-size="14.00">对账差错中心</text>
<text text-anchor="middle" x="1026" y="-35.8" font-family="Times,serif" font-size="14.00">P1 预留</text>
</g>
<!-- ccs&#45;&gt;recon -->
<g id="edge7" class="edge">
<title>ccs&#45;&gt;recon</title>
<path fill="none" stroke="#64748b" stroke-dasharray="5,2" d="M711.23,-76.25C840.95,-76.25 1027,-76.25 1027,-76.25 1027,-76.25 1027,-75.23 1027,-75.23"/>
<polygon fill="#64748b" stroke="#64748b" points="1030.5,-76.02 1027,-66.02 1023.5,-76.02 1030.5,-76.02"/>
<text text-anchor="middle" x="826.5" y="-50.8" font-family="Times,serif" font-size="14.00">对账埋点 / 账单数据</text>
</g>
<!-- biz -->
<g id="node2" class="node">
<title>biz</title>
<path fill="#dcfce7" stroke="#475569" d="M190,-206C190,-206 26,-206 26,-206 20,-206 14,-200 14,-194 14,-194 14,-180 14,-180 14,-174 20,-168 26,-168 26,-168 190,-168 190,-168 196,-168 202,-174 202,-180 202,-180 202,-194 202,-194 202,-200 196,-206 190,-206"/>
<text text-anchor="middle" x="108" y="-190.8" font-family="Times,serif" font-size="14.00">本地生活 / 电商业务平台</text>
<text text-anchor="middle" x="108" y="-175.8" font-family="Times,serif" font-size="14.00">订单、履约、核销业务事实</text>
</g>
<!-- biz&#45;&gt;ccs -->
<g id="edge1" class="edge">
<title>biz&#45;&gt;ccs</title>
<path fill="none" stroke="black" d="M202.17,-173C342.2,-173 589,-173 589,-173 589,-173 589,-147.59 589,-147.59"/>
<polygon fill="black" stroke="black" points="592.5,-147.59 589,-137.59 585.5,-147.59 592.5,-147.59"/>
<text text-anchor="middle" x="341" y="-190.8" font-family="Times,serif" font-size="14.00">SourceEvent 标准事件</text>
</g>
<!-- ops -->
<g id="node3" class="node">
<title>ops</title>
<path fill="#f8fafc" stroke="#475569" d="M204,-150C204,-150 12,-150 12,-150 6,-150 0,-144 0,-138 0,-138 0,-124 0,-124 0,-118 6,-112 12,-112 12,-112 204,-112 204,-112 210,-112 216,-118 216,-124 216,-124 216,-138 216,-138 216,-144 210,-150 204,-150"/>
<text text-anchor="middle" x="108" y="-134.8" font-family="Times,serif" font-size="14.00">平台运营 / 财务</text>
<text text-anchor="middle" x="108" y="-119.8" font-family="Times,serif" font-size="14.00">策略配置、商家应付、确认结算</text>
</g>
<!-- ops&#45;&gt;ccs -->
<g id="edge2" class="edge">
<title>ops&#45;&gt;ccs</title>
<path fill="none" stroke="black" d="M216.13,-124.75C216.13,-124.75 455.93,-124.75 455.93,-124.75"/>
<polygon fill="black" stroke="black" points="455.93,-128.25 465.93,-124.75 455.93,-121.25 455.93,-128.25"/>
<text text-anchor="middle" x="341" y="-134.8" font-family="Times,serif" font-size="14.00">策略 / 查询 / 确认结算</text>
</g>
<!-- pay -->
<g id="node5" class="node">
<title>pay</title>
<path fill="#fff7ed" stroke="#475569" d="M182.5,-94C182.5,-94 33.5,-94 33.5,-94 27.5,-94 21.5,-88 21.5,-82 21.5,-82 21.5,-68 21.5,-68 21.5,-62 27.5,-56 33.5,-56 33.5,-56 182.5,-56 182.5,-56 188.5,-56 194.5,-62 194.5,-68 194.5,-68 194.5,-82 194.5,-82 194.5,-88 188.5,-94 182.5,-94"/>
<text text-anchor="middle" x="108" y="-78.8" font-family="Times,serif" font-size="14.00">支付 / 交易平台</text>
<text text-anchor="middle" x="108" y="-63.8" font-family="Times,serif" font-size="14.00">支付事实、担保交易参考</text>
</g>
<!-- pay&#45;&gt;ccs -->
<g id="edge5" class="edge">
<title>pay&#45;&gt;ccs</title>
<path fill="none" stroke="#64748b" stroke-dasharray="5,2" d="M194.74,-85.5C194.74,-85.5 455.85,-85.5 455.85,-85.5"/>
<polygon fill="#64748b" stroke="#64748b" points="455.85,-89 465.85,-85.5 455.85,-82 455.85,-89"/>
<text text-anchor="middle" x="341" y="-78.8" font-family="Times,serif" font-size="14.00">支付事实引用，不定义清结算状态</text>
</g>
<!-- bff -->
<g id="node6" class="node">
<title>bff</title>
<path fill="#e0f2fe" stroke="#475569" d="M204,-38C204,-38 12,-38 12,-38 6,-38 0,-32 0,-26 0,-26 0,-12 0,-12 0,-6 6,0 12,0 12,0 204,0 204,0 210,0 216,-6 216,-12 216,-12 216,-26 216,-26 216,-32 210,-38 204,-38"/>
<text text-anchor="middle" x="108" y="-22.8" font-family="Times,serif" font-size="14.00">商户端 / BFF</text>
<text text-anchor="middle" x="108" y="-7.8" font-family="Times,serif" font-size="14.00">只做展示适配，不定义底层状态</text>
</g>
<!-- bff&#45;&gt;ccs -->
<g id="edge4" class="edge">
<title>bff&#45;&gt;ccs</title>
<path fill="none" stroke="black" d="M206,-38.31C206,-55.19 206,-77 206,-77 206,-77 455.9,-77 455.9,-77"/>
<polygon fill="black" stroke="black" points="455.9,-80.5 465.9,-77 455.9,-73.5 455.9,-80.5"/>
<text text-anchor="middle" x="341" y="-22.8" font-family="Times,serif" font-size="14.00">标准查询接口</text>
</g>
</g>
</svg>
