<?xml version="1.0" encoding="UTF-8" standalone="no"?>
<!DOCTYPE svg PUBLIC "-//W3C//DTD SVG 1.1//EN"
 "http://www.w3.org/Graphics/SVG/1.1/DTD/svg11.dtd">
<!-- Generated by graphviz version 2.42.4 (0)
 -->
<!-- Title: c2 Pages: 1 -->
<svg width="1794pt" height="351pt"
 viewBox="0.00 0.00 1794.00 351.00" xmlns="http://www.w3.org/2000/svg" xmlns:xlink="http://www.w3.org/1999/xlink">
<g id="graph0" class="graph" transform="scale(1 1) rotate(0) translate(4 347)">
<title>c2</title>
<polygon fill="white" stroke="transparent" points="-4,4 -4,-347 1790,-347 1790,4 -4,4"/>
<text text-anchor="middle" x="893" y="-324.6" font-family="Noto Sans CJK SC" font-size="18.00">C2 容器与模块视图：在线、领域、数据三层</text>
<g id="clust1" class="cluster">
<title>cluster_api</title>
<path fill="none" stroke="#cbd5e1" d="M20,-169C20,-169 426,-169 426,-169 432,-169 438,-175 438,-181 438,-181 438,-295 438,-295 438,-301 432,-307 426,-307 426,-307 20,-307 20,-307 14,-307 8,-301 8,-295 8,-295 8,-181 8,-181 8,-175 14,-169 20,-169"/>
<text text-anchor="middle" x="223" y="-288.6" font-family="Times,serif" font-size="18.00">接口与应用层</text>
</g>
<g id="clust2" class="cluster">
<title>cluster_domain</title>
<path fill="none" stroke="#cbd5e1" d="M470,-171C470,-171 1558,-171 1558,-171 1564,-171 1570,-177 1570,-183 1570,-183 1570,-293 1570,-293 1570,-299 1564,-305 1558,-305 1558,-305 470,-305 470,-305 464,-305 458,-299 458,-293 458,-293 458,-183 458,-183 458,-177 464,-171 470,-171"/>
<text text-anchor="middle" x="1014" y="-286.6" font-family="Times,serif" font-size="18.00">领域核心层</text>
</g>
<g id="clust3" class="cluster">
<title>cluster_infra</title>
<path fill="none" stroke="#cbd5e1" d="M1602,-8C1602,-8 1766,-8 1766,-8 1772,-8 1778,-14 1778,-20 1778,-20 1778,-190 1778,-190 1778,-196 1772,-202 1766,-202 1766,-202 1602,-202 1602,-202 1596,-202 1590,-196 1590,-190 1590,-190 1590,-20 1590,-20 1590,-14 1596,-8 1602,-8"/>
<text text-anchor="middle" x="1684" y="-183.6" font-family="Times,serif" font-size="18.00">基础设施与防腐层</text>
</g>
<!-- api -->
<g id="node1" class="node">
<title>api</title>
<path fill="#eef2ff" stroke="#4f46e5" d="M190,-271C190,-271 28,-271 28,-271 22,-271 16,-265 16,-259 16,-259 16,-245 16,-245 16,-239 22,-233 28,-233 28,-233 190,-233 190,-233 196,-233 202,-239 202,-245 202,-245 202,-259 202,-259 202,-265 196,-271 190,-271"/>
<text text-anchor="middle" x="109" y="-255.8" font-family="Times,serif" font-size="14.00">ClearingSettlement API</text>
<text text-anchor="middle" x="109" y="-240.8" font-family="Times,serif" font-size="14.00">事件接入 / 后台 / 查询</text>
</g>
<!-- app -->
<g id="node2" class="node">
<title>app</title>
<path fill="#eef2ff" stroke="#4f46e5" d="M418,-216C418,-216 250,-216 250,-216 244,-216 238,-210 238,-204 238,-204 238,-190 238,-190 238,-184 244,-178 250,-178 250,-178 418,-178 418,-178 424,-178 430,-184 430,-190 430,-190 430,-204 430,-204 430,-210 424,-216 418,-216"/>
<text text-anchor="middle" x="334" y="-200.8" font-family="Times,serif" font-size="14.00">Application Services</text>
<text text-anchor="middle" x="334" y="-185.8" font-family="Times,serif" font-size="14.00">Command 编排 / 事务边界</text>
</g>
<!-- api&#45;&gt;app -->
<g id="edge1" class="edge">
<title>api&#45;&gt;app</title>
<path fill="none" stroke="black" d="M195,-232.79C195,-218.93 195,-202.67 195,-202.67 195,-202.67 227.84,-202.67 227.84,-202.67"/>
<polygon fill="black" stroke="black" points="227.84,-206.17 237.84,-202.67 227.84,-199.17 227.84,-206.17"/>
</g>
<!-- event -->
<g id="node5" class="node">
<title>event</title>
<path fill="#e0f2fe" stroke="#0284c7" d="M627,-215C627,-215 478,-215 478,-215 472,-215 466,-209 466,-203 466,-203 466,-191 466,-191 466,-185 472,-179 478,-179 478,-179 627,-179 627,-179 633,-179 639,-185 639,-191 639,-191 639,-203 639,-203 639,-209 633,-215 627,-215"/>
<text text-anchor="middle" x="552.5" y="-193.3" font-family="Times,serif" font-size="14.00">Source Event Context</text>
</g>
<!-- app&#45;&gt;event -->
<g id="edge3" class="edge">
<title>app&#45;&gt;event</title>
<path fill="none" stroke="black" d="M430.16,-197C430.16,-197 455.93,-197 455.93,-197"/>
<polygon fill="black" stroke="black" points="455.93,-200.5 465.93,-197 455.93,-193.5 455.93,-200.5"/>
</g>
<!-- scheduler -->
<g id="node3" class="node">
<title>scheduler</title>
<path fill="#eef2ff" stroke="#4f46e5" d="M176,-215C176,-215 42,-215 42,-215 36,-215 30,-209 30,-203 30,-203 30,-189 30,-189 30,-183 36,-177 42,-177 42,-177 176,-177 176,-177 182,-177 188,-183 188,-189 188,-189 188,-203 188,-203 188,-209 182,-215 176,-215"/>
<text text-anchor="middle" x="109" y="-199.8" font-family="Times,serif" font-size="14.00">Domain Jobs</text>
<text text-anchor="middle" x="109" y="-184.8" font-family="Times,serif" font-size="14.00">账期成熟 / 补偿 / 重试</text>
</g>
<!-- scheduler&#45;&gt;app -->
<g id="edge2" class="edge">
<title>scheduler&#45;&gt;app</title>
<path fill="none" stroke="black" d="M188.01,-190.33C188.01,-190.33 227.78,-190.33 227.78,-190.33"/>
<polygon fill="black" stroke="black" points="227.78,-193.83 237.78,-190.33 227.78,-186.83 227.78,-193.83"/>
</g>
<!-- policy -->
<g id="node4" class="node">
<title>policy</title>
<path fill="#e0f2fe" stroke="#0284c7" d="M600,-269C600,-269 505,-269 505,-269 499,-269 493,-263 493,-257 493,-257 493,-245 493,-245 493,-239 499,-233 505,-233 505,-233 600,-233 600,-233 606,-233 612,-239 612,-245 612,-245 612,-257 612,-257 612,-263 606,-269 600,-269"/>
<text text-anchor="middle" x="552.5" y="-247.3" font-family="Times,serif" font-size="14.00">Policy Context</text>
</g>
<!-- clearing -->
<g id="node6" class="node">
<title>clearing</title>
<path fill="#e0f2fe" stroke="#0284c7" d="M801,-215C801,-215 687,-215 687,-215 681,-215 675,-209 675,-203 675,-203 675,-191 675,-191 675,-185 681,-179 687,-179 687,-179 801,-179 801,-179 807,-179 813,-185 813,-191 813,-191 813,-203 813,-203 813,-209 807,-215 801,-215"/>
<text text-anchor="middle" x="744" y="-193.3" font-family="Times,serif" font-size="14.00">Clearing Context</text>
</g>
<!-- policy&#45;&gt;clearing -->
<g id="edge5" class="edge">
<title>policy&#45;&gt;clearing</title>
<path fill="none" stroke="black" d="M612.04,-261.8C668.26,-261.8 744,-261.8 744,-261.8 744,-261.8 744,-225.05 744,-225.05"/>
<polygon fill="black" stroke="black" points="747.5,-225.05 744,-215.05 740.5,-225.05 747.5,-225.05"/>
</g>
<!-- repo -->
<g id="node10" class="node">
<title>repo</title>
<path fill="#f8fafc" stroke="#475569" d="M1753.5,-110C1753.5,-110 1614.5,-110 1614.5,-110 1608.5,-110 1602.5,-104 1602.5,-98 1602.5,-98 1602.5,-84 1602.5,-84 1602.5,-78 1608.5,-72 1614.5,-72 1614.5,-72 1753.5,-72 1753.5,-72 1759.5,-72 1765.5,-78 1765.5,-84 1765.5,-84 1765.5,-98 1765.5,-98 1765.5,-104 1759.5,-110 1753.5,-110"/>
<text text-anchor="middle" x="1684" y="-94.8" font-family="Times,serif" font-size="14.00">Repository Adapters</text>
<text text-anchor="middle" x="1684" y="-79.8" font-family="Times,serif" font-size="14.00">MySQL</text>
</g>
<!-- policy&#45;&gt;repo -->
<g id="edge10" class="edge">
<title>policy&#45;&gt;repo</title>
<path fill="none" stroke="#94a3b8" d="M612.28,-247.4C638.31,-247.4 663,-247.4 663,-247.4 663,-247.4 663,-91 663,-91 663,-91 1592.17,-91 1592.17,-91"/>
<polygon fill="#94a3b8" stroke="#94a3b8" points="1592.17,-94.5 1602.17,-91 1592.17,-87.5 1592.17,-94.5"/>
</g>
<!-- obs -->
<g id="node12" class="node">
<title>obs</title>
<path fill="#f8fafc" stroke="#475569" d="M1758,-54C1758,-54 1610,-54 1610,-54 1604,-54 1598,-48 1598,-42 1598,-42 1598,-28 1598,-28 1598,-22 1604,-16 1610,-16 1610,-16 1758,-16 1758,-16 1764,-16 1770,-22 1770,-28 1770,-28 1770,-42 1770,-42 1770,-48 1764,-54 1758,-54"/>
<text text-anchor="middle" x="1684" y="-38.8" font-family="Times,serif" font-size="14.00">Metrics / Logs / Trace</text>
<text text-anchor="middle" x="1684" y="-23.8" font-family="Times,serif" font-size="14.00">开发诊断</text>
</g>
<!-- policy&#45;&gt;obs -->
<g id="edge11" class="edge">
<title>policy&#45;&gt;obs</title>
<path fill="none" stroke="#94a3b8" stroke-dasharray="5,2" d="M612.07,-240.2C632.81,-240.2 651,-240.2 651,-240.2 651,-240.2 651,-26.86 651,-26.86 651,-26.86 1587.7,-26.86 1587.7,-26.86"/>
<polygon fill="#94a3b8" stroke="#94a3b8" points="1587.7,-30.36 1597.7,-26.86 1587.7,-23.36 1587.7,-30.36"/>
</g>
<!-- event&#45;&gt;clearing -->
<g id="edge4" class="edge">
<title>event&#45;&gt;clearing</title>
<path fill="none" stroke="black" d="M639.01,-197C639.01,-197 664.81,-197 664.81,-197"/>
<polygon fill="black" stroke="black" points="664.81,-200.5 674.81,-197 664.81,-193.5 664.81,-200.5"/>
</g>
<!-- event&#45;&gt;repo -->
<g id="edge12" class="edge">
<title>event&#45;&gt;repo</title>
<path fill="none" stroke="#94a3b8" d="M582,-178.95C582,-146.47 582,-81.5 582,-81.5 582,-81.5 1592.07,-81.5 1592.07,-81.5"/>
<polygon fill="#94a3b8" stroke="#94a3b8" points="1592.07,-85 1602.07,-81.5 1592.07,-78 1592.07,-85"/>
</g>
<!-- event&#45;&gt;obs -->
<g id="edge13" class="edge">
<title>event&#45;&gt;obs</title>
<path fill="none" stroke="#94a3b8" stroke-dasharray="5,2" d="M524,-178.87C524,-134.01 524,-21.43 524,-21.43 524,-21.43 1587.76,-21.43 1587.76,-21.43"/>
<polygon fill="#94a3b8" stroke="#94a3b8" points="1587.76,-24.93 1597.76,-21.43 1587.76,-17.93 1587.76,-24.93"/>
</g>
<!-- position -->
<g id="node7" class="node">
<title>position</title>
<path fill="#e0f2fe" stroke="#0284c7" d="M1055,-215C1055,-215 861,-215 861,-215 855,-215 849,-209 849,-203 849,-203 849,-191 849,-191 849,-185 855,-179 861,-179 861,-179 1055,-179 1055,-179 1061,-179 1067,-185 1067,-191 1067,-191 1067,-203 1067,-203 1067,-209 1061,-215 1055,-215"/>
<text text-anchor="middle" x="958" y="-193.3" font-family="Times,serif" font-size="14.00">Settlement Position Context</text>
</g>
<!-- clearing&#45;&gt;position -->
<g id="edge6" class="edge">
<title>clearing&#45;&gt;position</title>
<path fill="none" stroke="black" d="M813.18,-197C813.18,-197 838.99,-197 838.99,-197"/>
<polygon fill="black" stroke="black" points="838.99,-200.5 848.99,-197 838.99,-193.5 838.99,-200.5"/>
</g>
<!-- clearing&#45;&gt;repo -->
<g id="edge14" class="edge">
<title>clearing&#45;&gt;repo</title>
<path fill="none" stroke="#94a3b8" d="M767,-178.85C767,-150.9 767,-100.5 767,-100.5 767,-100.5 1592.22,-100.5 1592.22,-100.5"/>
<polygon fill="#94a3b8" stroke="#94a3b8" points="1592.22,-104 1602.22,-100.5 1592.22,-97 1592.22,-104"/>
</g>
<!-- clearing&#45;&gt;obs -->
<g id="edge15" class="edge">
<title>clearing&#45;&gt;obs</title>
<path fill="none" stroke="#94a3b8" stroke-dasharray="5,2" d="M721,-178.74C721,-135.86 721,-32.29 721,-32.29 721,-32.29 1587.69,-32.29 1587.69,-32.29"/>
<polygon fill="#94a3b8" stroke="#94a3b8" points="1587.69,-35.79 1597.69,-32.29 1587.69,-28.79 1587.69,-35.79"/>
</g>
<!-- billing -->
<g id="node8" class="node">
<title>billing</title>
<path fill="#e0f2fe" stroke="#0284c7" d="M1299,-231C1299,-231 1115,-231 1115,-231 1109,-231 1103,-225 1103,-219 1103,-219 1103,-207 1103,-207 1103,-201 1109,-195 1115,-195 1115,-195 1299,-195 1299,-195 1305,-195 1311,-201 1311,-207 1311,-207 1311,-219 1311,-219 1311,-225 1305,-231 1299,-231"/>
<text text-anchor="middle" x="1207" y="-209.3" font-family="Times,serif" font-size="14.00">Settlement Billing Context</text>
</g>
<!-- position&#45;&gt;billing -->
<g id="edge7" class="edge">
<title>position&#45;&gt;billing</title>
<path fill="none" stroke="black" d="M1067.22,-205C1067.22,-205 1092.62,-205 1092.62,-205"/>
<polygon fill="black" stroke="black" points="1092.62,-208.5 1102.62,-205 1092.62,-201.5 1092.62,-208.5"/>
</g>
<!-- position&#45;&gt;repo -->
<g id="edge16" class="edge">
<title>position&#45;&gt;repo</title>
<path fill="none" stroke="#94a3b8" d="M1067.36,-187C1252.32,-187 1607,-187 1607,-187 1607,-187 1607,-120.43 1607,-120.43"/>
<polygon fill="#94a3b8" stroke="#94a3b8" points="1610.5,-120.43 1607,-110.43 1603.5,-120.43 1610.5,-120.43"/>
</g>
<!-- position&#45;&gt;obs -->
<g id="edge17" class="edge">
<title>position&#45;&gt;obs</title>
<path fill="none" stroke="#94a3b8" stroke-dasharray="5,2" d="M958,-178.73C958,-136.89 958,-37.71 958,-37.71 958,-37.71 1587.87,-37.71 1587.87,-37.71"/>
<polygon fill="#94a3b8" stroke="#94a3b8" points="1587.87,-41.21 1597.87,-37.71 1587.87,-34.21 1587.87,-41.21"/>
</g>
<!-- posting -->
<g id="node9" class="node">
<title>posting</title>
<path fill="#e0f2fe" stroke="#0284c7" d="M1550,-269C1550,-269 1359,-269 1359,-269 1353,-269 1347,-263 1347,-257 1347,-257 1347,-245 1347,-245 1347,-239 1353,-233 1359,-233 1359,-233 1550,-233 1550,-233 1556,-233 1562,-239 1562,-245 1562,-245 1562,-257 1562,-257 1562,-263 1556,-269 1550,-269"/>
<text text-anchor="middle" x="1454.5" y="-247.3" font-family="Times,serif" font-size="14.00">Accounting Posting Context</text>
</g>
<!-- billing&#45;&gt;posting -->
<g id="edge8" class="edge">
<title>billing&#45;&gt;posting</title>
<path fill="none" stroke="black" d="M1207,-231.37C1207,-242.51 1207,-254.6 1207,-254.6 1207,-254.6 1336.66,-254.6 1336.66,-254.6"/>
<polygon fill="black" stroke="black" points="1336.66,-258.1 1346.66,-254.6 1336.66,-251.1 1336.66,-258.1"/>
</g>
<!-- billing&#45;&gt;repo -->
<g id="edge18" class="edge">
<title>billing&#45;&gt;repo</title>
<path fill="none" stroke="#94a3b8" d="M1311.04,-213C1430.74,-213 1611,-213 1611,-213 1611,-213 1611,-120.06 1611,-120.06"/>
<polygon fill="#94a3b8" stroke="#94a3b8" points="1614.5,-120.06 1611,-110.06 1607.5,-120.06 1614.5,-120.06"/>
</g>
<!-- billing&#45;&gt;obs -->
<g id="edge19" class="edge">
<title>billing&#45;&gt;obs</title>
<path fill="none" stroke="#94a3b8" stroke-dasharray="5,2" d="M1207,-194.82C1207,-151 1207,-43.14 1207,-43.14 1207,-43.14 1587.9,-43.14 1587.9,-43.14"/>
<polygon fill="#94a3b8" stroke="#94a3b8" points="1587.9,-46.64 1597.9,-43.14 1587.9,-39.64 1587.9,-46.64"/>
</g>
<!-- posting&#45;&gt;repo -->
<g id="edge20" class="edge">
<title>posting&#45;&gt;repo</title>
<path fill="none" stroke="#94a3b8" d="M1562,-245C1591.24,-245 1615,-245 1615,-245 1615,-245 1615,-120.19 1615,-120.19"/>
<polygon fill="#94a3b8" stroke="#94a3b8" points="1618.5,-120.19 1615,-110.19 1611.5,-120.19 1618.5,-120.19"/>
</g>
<!-- acctport -->
<g id="node11" class="node">
<title>acctport</title>
<path fill="#f8fafc" stroke="#475569" d="M1737.5,-166C1737.5,-166 1630.5,-166 1630.5,-166 1624.5,-166 1618.5,-160 1618.5,-154 1618.5,-154 1618.5,-140 1618.5,-140 1618.5,-134 1624.5,-128 1630.5,-128 1630.5,-128 1737.5,-128 1737.5,-128 1743.5,-128 1749.5,-134 1749.5,-140 1749.5,-140 1749.5,-154 1749.5,-154 1749.5,-160 1743.5,-166 1737.5,-166"/>
<text text-anchor="middle" x="1684" y="-150.8" font-family="Times,serif" font-size="14.00">Accounting Port</text>
<text text-anchor="middle" x="1684" y="-135.8" font-family="Times,serif" font-size="14.00">账户账务防腐层</text>
</g>
<!-- posting&#45;&gt;acctport -->
<g id="edge9" class="edge">
<title>posting&#45;&gt;acctport</title>
<path fill="none" stroke="black" d="M1562.19,-257C1621.82,-257 1684,-257 1684,-257 1684,-257 1684,-176.16 1684,-176.16"/>
<polygon fill="black" stroke="black" points="1687.5,-176.16 1684,-166.16 1680.5,-176.16 1687.5,-176.16"/>
</g>
<!-- posting&#45;&gt;obs -->
<g id="edge21" class="edge">
<title>posting&#45;&gt;obs</title>
<path fill="none" stroke="#94a3b8" stroke-dasharray="5,2" d="M1455,-232.68C1455,-182.85 1455,-48.57 1455,-48.57 1455,-48.57 1587.75,-48.57 1587.75,-48.57"/>
<polygon fill="#94a3b8" stroke="#94a3b8" points="1587.75,-52.07 1597.75,-48.57 1587.75,-45.07 1587.75,-52.07"/>
</g>
</g>
</svg>
