<?xml version="1.0" encoding="UTF-8" standalone="no"?>
<!DOCTYPE svg PUBLIC "-//W3C//DTD SVG 1.1//EN"
 "http://www.w3.org/Graphics/SVG/1.1/DTD/svg11.dtd">
<!-- Generated by graphviz version 2.42.4 (0)
 -->
<!-- Title: ctx Pages: 1 -->
<svg width="1673pt" height="242pt"
 viewBox="0.00 0.00 1673.00 242.00" xmlns="http://www.w3.org/2000/svg" xmlns:xlink="http://www.w3.org/1999/xlink">
<g id="graph0" class="graph" transform="scale(1 1) rotate(0) translate(4 238)">
<title>ctx</title>
<polygon fill="white" stroke="transparent" points="-4,4 -4,-238 1669,-238 1669,4 -4,4"/>
<text text-anchor="middle" x="832.5" y="-215.6" font-family="Noto Sans CJK SC" font-size="18.00">DDD 限界上下文：清分、清算、结算、入账解耦</text>
<!-- policy -->
<g id="node1" class="node">
<title>policy</title>
<path fill="#fef3c7" stroke="#475569" d="M173,-94C173,-94 12,-94 12,-94 6,-94 0,-88 0,-82 0,-82 0,-68 0,-68 0,-62 6,-56 12,-56 12,-56 173,-56 173,-56 179,-56 185,-62 185,-68 185,-68 185,-82 185,-82 185,-88 179,-94 173,-94"/>
<text text-anchor="middle" x="92.5" y="-78.8" font-family="Times,serif" font-size="14.00">清分结算策略上下文</text>
<text text-anchor="middle" x="92.5" y="-63.8" font-family="Times,serif" font-size="14.00">Policy / Rule / Snapshot</text>
</g>
<!-- clearing -->
<g id="node3" class="node">
<title>clearing</title>
<path fill="#dbeafe" stroke="#475569" d="M465,-66C465,-66 319,-66 319,-66 313,-66 307,-60 307,-54 307,-54 307,-40 307,-40 307,-34 313,-28 319,-28 319,-28 465,-28 465,-28 471,-28 477,-34 477,-40 477,-40 477,-54 477,-54 477,-60 471,-66 465,-66"/>
<text text-anchor="middle" x="392" y="-50.8" font-family="Times,serif" font-size="14.00">清分上下文</text>
<text text-anchor="middle" x="392" y="-35.8" font-family="Times,serif" font-size="14.00">ClearingResult / Item</text>
</g>
<!-- policy&#45;&gt;clearing -->
<g id="edge1" class="edge">
<title>policy&#45;&gt;clearing</title>
<path fill="none" stroke="black" d="M185.21,-61C185.21,-61 296.86,-61 296.86,-61"/>
<polygon fill="black" stroke="black" points="296.86,-64.5 306.86,-61 296.86,-57.5 296.86,-64.5"/>
<text text-anchor="middle" x="246" y="-78.8" font-family="Times,serif" font-size="14.00">策略快照</text>
</g>
<!-- intake -->
<g id="node2" class="node">
<title>intake</title>
<path fill="#dcfce7" stroke="#475569" d="M161,-38C161,-38 24,-38 24,-38 18,-38 12,-32 12,-26 12,-26 12,-12 12,-12 12,-6 18,0 24,0 24,0 161,0 161,0 167,0 173,-6 173,-12 173,-12 173,-26 173,-26 173,-32 167,-38 161,-38"/>
<text text-anchor="middle" x="92.5" y="-22.8" font-family="Times,serif" font-size="14.00">来源事件上下文</text>
<text text-anchor="middle" x="92.5" y="-7.8" font-family="Times,serif" font-size="14.00">SourceEvent / Inbox</text>
</g>
<!-- intake&#45;&gt;clearing -->
<g id="edge2" class="edge">
<title>intake&#45;&gt;clearing</title>
<path fill="none" stroke="black" d="M173.15,-33C173.15,-33 296.75,-33 296.75,-33"/>
<polygon fill="black" stroke="black" points="296.75,-36.5 306.75,-33 296.75,-29.5 296.75,-36.5"/>
<text text-anchor="middle" x="246" y="-22.8" font-family="Times,serif" font-size="14.00">标准业务事实</text>
</g>
<!-- position -->
<g id="node4" class="node">
<title>position</title>
<path fill="#ede9fe" stroke="#475569" d="M740,-101C740,-101 611,-101 611,-101 605,-101 599,-95 599,-89 599,-89 599,-75 599,-75 599,-69 605,-63 611,-63 611,-63 740,-63 740,-63 746,-63 752,-69 752,-75 752,-75 752,-89 752,-89 752,-95 746,-101 740,-101"/>
<text text-anchor="middle" x="675.5" y="-85.8" font-family="Times,serif" font-size="14.00">清算头寸上下文</text>
<text text-anchor="middle" x="675.5" y="-70.8" font-family="Times,serif" font-size="14.00">SettlementPosition</text>
</g>
<!-- clearing&#45;&gt;position -->
<g id="edge3" class="edge">
<title>clearing&#45;&gt;position</title>
<path fill="none" stroke="black" d="M477.21,-54.25C560.86,-54.25 676,-54.25 676,-54.25 676,-54.25 676,-55.1 676,-55.1"/>
<polygon fill="black" stroke="black" points="672.5,-52.73 676,-62.73 679.5,-52.73 672.5,-52.73"/>
<text text-anchor="middle" x="538" y="-76.8" font-family="Times,serif" font-size="14.00">可结算金额项</text>
</g>
<!-- recon -->
<g id="node8" class="node">
<title>recon</title>
<path fill="#f1f5f9" stroke="#475569" d="M1653,-66C1653,-66 1531,-66 1531,-66 1525,-66 1519,-60 1519,-54 1519,-54 1519,-40 1519,-40 1519,-34 1525,-28 1531,-28 1531,-28 1653,-28 1653,-28 1659,-28 1665,-34 1665,-40 1665,-40 1665,-54 1665,-54 1665,-60 1659,-66 1653,-66"/>
<text text-anchor="middle" x="1592" y="-50.8" font-family="Times,serif" font-size="14.00">对账差错上下文(P1)</text>
<text text-anchor="middle" x="1592" y="-35.8" font-family="Times,serif" font-size="14.00">Reconcile / Diff</text>
</g>
<!-- clearing&#45;&gt;recon -->
<g id="edge9" class="edge">
<title>clearing&#45;&gt;recon</title>
<path fill="none" stroke="#64748b" stroke-dasharray="5,2" d="M477.34,-36.75C477.34,-36.75 1508.75,-36.75 1508.75,-36.75"/>
<polygon fill="#64748b" stroke="#64748b" points="1508.75,-40.25 1518.75,-36.75 1508.75,-33.25 1508.75,-40.25"/>
<text text-anchor="middle" x="976" y="-34.8" font-family="Times,serif" font-size="14.00">P1 对账埋点</text>
</g>
<!-- bill -->
<g id="node5" class="node">
<title>bill</title>
<path fill="#fce7f3" stroke="#475569" d="M1047,-162C1047,-162 905,-162 905,-162 899,-162 893,-156 893,-150 893,-150 893,-136 893,-136 893,-130 899,-124 905,-124 905,-124 1047,-124 1047,-124 1053,-124 1059,-130 1059,-136 1059,-136 1059,-150 1059,-150 1059,-156 1053,-162 1047,-162"/>
<text text-anchor="middle" x="976" y="-146.8" font-family="Times,serif" font-size="14.00">结算单上下文</text>
<text text-anchor="middle" x="976" y="-131.8" font-family="Times,serif" font-size="14.00">Batch / Bill / BillItem</text>
</g>
<!-- position&#45;&gt;bill -->
<g id="edge4" class="edge">
<title>position&#45;&gt;bill</title>
<path fill="none" stroke="black" d="M676,-101.3C676,-119.17 676,-143 676,-143 676,-143 882.83,-143 882.83,-143"/>
<polygon fill="black" stroke="black" points="882.83,-146.5 892.83,-143 882.83,-139.5 882.83,-146.5"/>
<text text-anchor="middle" x="822.5" y="-132.8" font-family="Times,serif" font-size="14.00">ELIGIBLE 头寸</text>
</g>
<!-- query -->
<g id="node7" class="node">
<title>query</title>
<path fill="#f8fafc" stroke="#475569" d="M1338,-109C1338,-109 1231,-109 1231,-109 1225,-109 1219,-103 1219,-97 1219,-97 1219,-83 1219,-83 1219,-77 1225,-71 1231,-71 1231,-71 1338,-71 1338,-71 1344,-71 1350,-77 1350,-83 1350,-83 1350,-97 1350,-97 1350,-103 1344,-109 1338,-109"/>
<text text-anchor="middle" x="1284.5" y="-93.8" font-family="Times,serif" font-size="14.00">查询投影上下文</text>
<text text-anchor="middle" x="1284.5" y="-78.8" font-family="Times,serif" font-size="14.00">Standard Query</text>
</g>
<!-- position&#45;&gt;query -->
<g id="edge8" class="edge">
<title>position&#45;&gt;query</title>
<path fill="none" stroke="black" d="M752.01,-86C752.01,-86 1208.99,-86 1208.99,-86"/>
<polygon fill="black" stroke="black" points="1208.99,-89.5 1218.99,-86 1208.99,-82.5 1208.99,-89.5"/>
<text text-anchor="middle" x="976" y="-85.8" font-family="Times,serif" font-size="14.00">头寸读模型</text>
</g>
<!-- posting -->
<g id="node6" class="node">
<title>posting</title>
<path fill="#ffe4e6" stroke="#475569" d="M1390,-172C1390,-172 1179,-172 1179,-172 1173,-172 1167,-166 1167,-160 1167,-160 1167,-146 1167,-146 1167,-140 1173,-134 1179,-134 1179,-134 1390,-134 1390,-134 1396,-134 1402,-140 1402,-146 1402,-146 1402,-160 1402,-160 1402,-166 1396,-172 1390,-172"/>
<text text-anchor="middle" x="1284.5" y="-156.8" font-family="Times,serif" font-size="14.00">账务入账编排上下文</text>
<text text-anchor="middle" x="1284.5" y="-141.8" font-family="Times,serif" font-size="14.00">PostingOrder / AccountingPort</text>
</g>
<!-- bill&#45;&gt;posting -->
<g id="edge5" class="edge">
<title>bill&#45;&gt;posting</title>
<path fill="none" stroke="black" d="M1059.08,-143.33C1059.08,-143.33 1156.79,-143.33 1156.79,-143.33"/>
<polygon fill="black" stroke="black" points="1156.79,-146.83 1166.79,-143.33 1156.79,-139.83 1156.79,-146.83"/>
<text text-anchor="middle" x="1113" y="-194.8" font-family="Times,serif" font-size="14.00">入账指令</text>
</g>
<!-- bill&#45;&gt;query -->
<g id="edge7" class="edge">
<title>bill&#45;&gt;query</title>
<path fill="none" stroke="black" d="M1059.21,-129C1150.73,-129 1285,-129 1285,-129 1285,-129 1285,-119.04 1285,-119.04"/>
<polygon fill="black" stroke="black" points="1288.5,-119.04 1285,-109.04 1281.5,-119.04 1288.5,-119.04"/>
<text text-anchor="middle" x="1113" y="-118.8" font-family="Times,serif" font-size="14.00">结算读模型</text>
</g>
<!-- posting&#45;&gt;bill -->
<g id="edge6" class="edge">
<title>posting&#45;&gt;bill</title>
<path fill="none" stroke="black" d="M1166.99,-152.67C1166.99,-152.67 1069.16,-152.67 1069.16,-152.67"/>
<polygon fill="black" stroke="black" points="1069.16,-149.17 1059.16,-152.67 1069.16,-156.17 1069.16,-149.17"/>
<text text-anchor="middle" x="1113" y="-156.8" font-family="Times,serif" font-size="14.00">入账结果</text>
</g>
<!-- posting&#45;&gt;recon -->
<g id="edge10" class="edge">
<title>posting&#45;&gt;recon</title>
<path fill="none" stroke="#64748b" stroke-dasharray="5,2" d="M1376,-133.78C1376,-102.86 1376,-45.5 1376,-45.5 1376,-45.5 1508.87,-45.5 1508.87,-45.5"/>
<polygon fill="#64748b" stroke="#64748b" points="1508.87,-49 1518.87,-45.5 1508.87,-42 1508.87,-49"/>
<text text-anchor="middle" x="1460.5" y="-111.8" font-family="Times,serif" font-size="14.00">P1 对账埋点</text>
</g>
</g>
</svg>
