<?xml version="1.0" encoding="UTF-8" standalone="no"?>
<!DOCTYPE svg PUBLIC "-//W3C//DTD SVG 1.1//EN"
 "http://www.w3.org/Graphics/SVG/1.1/DTD/svg11.dtd">
<!-- Generated by graphviz version 2.42.4 (0)
 -->
<!-- Title: rt Pages: 1 -->
<svg width="367pt" height="740pt"
 viewBox="0.00 0.00 367.00 740.00" xmlns="http://www.w3.org/2000/svg" xmlns:xlink="http://www.w3.org/1999/xlink">
<g id="graph0" class="graph" transform="scale(1 1) rotate(0) translate(4 736)">
<title>rt</title>
<polygon fill="white" stroke="transparent" points="-4,4 -4,-736 363,-736 363,4 -4,4"/>
<text text-anchor="middle" x="179.5" y="-713.6" font-family="Noto Sans CJK SC" font-size="18.00">运行时主链路：普通商品核销后正向清结算</text>
<!-- s1 -->
<g id="node1" class="node">
<title>s1</title>
<path fill="#f8fafc" stroke="#334155" d="M270.5,-704C270.5,-704 88.5,-704 88.5,-704 82.5,-704 76.5,-698 76.5,-692 76.5,-692 76.5,-678 76.5,-678 76.5,-672 82.5,-666 88.5,-666 88.5,-666 270.5,-666 270.5,-666 276.5,-666 282.5,-672 282.5,-678 282.5,-678 282.5,-692 282.5,-692 282.5,-698 276.5,-704 270.5,-704"/>
<text text-anchor="middle" x="179.5" y="-688.8" font-family="Times,serif" font-size="14.00">WRITE_OFF_COMPLETED</text>
<text text-anchor="middle" x="179.5" y="-673.8" font-family="Times,serif" font-size="14.00">履约/核销事实</text>
</g>
<!-- s2 -->
<g id="node2" class="node">
<title>s2</title>
<path fill="#f8fafc" stroke="#334155" d="M263,-630C263,-630 96,-630 96,-630 90,-630 84,-624 84,-618 84,-618 84,-604 84,-604 84,-598 90,-592 96,-592 96,-592 263,-592 263,-592 269,-592 275,-598 275,-604 275,-604 275,-618 275,-618 275,-624 269,-630 263,-630"/>
<text text-anchor="middle" x="179.5" y="-614.8" font-family="Times,serif" font-size="14.00">SourceEvent RECEIVED</text>
<text text-anchor="middle" x="179.5" y="-599.8" font-family="Times,serif" font-size="14.00">幂等 + request_hash</text>
</g>
<!-- s1&#45;&gt;s2 -->
<g id="edge1" class="edge">
<title>s1&#45;&gt;s2</title>
<path fill="none" stroke="black" d="M179.5,-665.94C179.5,-665.94 179.5,-640.25 179.5,-640.25"/>
<polygon fill="black" stroke="black" points="183,-640.25 179.5,-630.25 176,-640.25 183,-640.25"/>
</g>
<!-- s3 -->
<g id="node3" class="node">
<title>s3</title>
<path fill="#f8fafc" stroke="#334155" d="M248,-556C248,-556 111,-556 111,-556 105,-556 99,-550 99,-544 99,-544 99,-530 99,-530 99,-524 105,-518 111,-518 111,-518 248,-518 248,-518 254,-518 260,-524 260,-530 260,-530 260,-544 260,-544 260,-550 254,-556 248,-556"/>
<text text-anchor="middle" x="179.5" y="-540.8" font-family="Times,serif" font-size="14.00">读取 PolicySnapshot</text>
<text text-anchor="middle" x="179.5" y="-525.8" font-family="Times,serif" font-size="14.00">账期/比例/成本承担</text>
</g>
<!-- s2&#45;&gt;s3 -->
<g id="edge2" class="edge">
<title>s2&#45;&gt;s3</title>
<path fill="none" stroke="black" d="M179.5,-591.94C179.5,-591.94 179.5,-566.25 179.5,-566.25"/>
<polygon fill="black" stroke="black" points="183,-566.25 179.5,-556.25 176,-566.25 183,-566.25"/>
</g>
<!-- s4 -->
<g id="node4" class="node">
<title>s4</title>
<path fill="#f8fafc" stroke="#334155" d="M267.5,-482C267.5,-482 91.5,-482 91.5,-482 85.5,-482 79.5,-476 79.5,-470 79.5,-470 79.5,-456 79.5,-456 79.5,-450 85.5,-444 91.5,-444 91.5,-444 267.5,-444 267.5,-444 273.5,-444 279.5,-450 279.5,-456 279.5,-456 279.5,-470 279.5,-470 279.5,-476 273.5,-482 267.5,-482"/>
<text text-anchor="middle" x="179.5" y="-466.8" font-family="Times,serif" font-size="14.00">ClearingResult CLEARED</text>
<text text-anchor="middle" x="179.5" y="-451.8" font-family="Times,serif" font-size="14.00">多参与方清分</text>
</g>
<!-- s3&#45;&gt;s4 -->
<g id="edge3" class="edge">
<title>s3&#45;&gt;s4</title>
<path fill="none" stroke="black" d="M179.5,-517.94C179.5,-517.94 179.5,-492.25 179.5,-492.25"/>
<polygon fill="black" stroke="black" points="183,-492.25 179.5,-482.25 176,-492.25 183,-492.25"/>
</g>
<!-- s5 -->
<g id="node5" class="node">
<title>s5</title>
<path fill="#f8fafc" stroke="#334155" d="M291,-408C291,-408 68,-408 68,-408 62,-408 56,-402 56,-396 56,-396 56,-382 56,-382 56,-376 62,-370 68,-370 68,-370 291,-370 291,-370 297,-370 303,-376 303,-382 303,-382 303,-396 303,-396 303,-402 297,-408 291,-408"/>
<text text-anchor="middle" x="179.5" y="-392.8" font-family="Times,serif" font-size="14.00">SettlementPosition IN_TRANSIT</text>
<text text-anchor="middle" x="179.5" y="-377.8" font-family="Times,serif" font-size="14.00">形成在途头寸</text>
</g>
<!-- s4&#45;&gt;s5 -->
<g id="edge4" class="edge">
<title>s4&#45;&gt;s5</title>
<path fill="none" stroke="black" d="M179.5,-443.94C179.5,-443.94 179.5,-418.25 179.5,-418.25"/>
<polygon fill="black" stroke="black" points="183,-418.25 179.5,-408.25 176,-418.25 183,-418.25"/>
</g>
<!-- s6 -->
<g id="node6" class="node">
<title>s6</title>
<path fill="#f8fafc" stroke="#334155" d="M242,-334C242,-334 117,-334 117,-334 111,-334 105,-328 105,-322 105,-322 105,-308 105,-308 105,-302 111,-296 117,-296 117,-296 242,-296 242,-296 248,-296 254,-302 254,-308 254,-308 254,-322 254,-322 254,-328 248,-334 242,-334"/>
<text text-anchor="middle" x="179.5" y="-318.8" font-family="Times,serif" font-size="14.00">MaturePositionJob</text>
<text text-anchor="middle" x="179.5" y="-303.8" font-family="Times,serif" font-size="14.00">到期 &#45;&gt; ELIGIBLE</text>
</g>
<!-- s5&#45;&gt;s6 -->
<g id="edge5" class="edge">
<title>s5&#45;&gt;s6</title>
<path fill="none" stroke="black" d="M179.5,-369.94C179.5,-369.94 179.5,-344.25 179.5,-344.25"/>
<polygon fill="black" stroke="black" points="183,-344.25 179.5,-334.25 176,-344.25 183,-344.25"/>
</g>
<!-- s7 -->
<g id="node7" class="node">
<title>s7</title>
<path fill="#f8fafc" stroke="#334155" d="M248.5,-260C248.5,-260 110.5,-260 110.5,-260 104.5,-260 98.5,-254 98.5,-248 98.5,-248 98.5,-234 98.5,-234 98.5,-228 104.5,-222 110.5,-222 110.5,-222 248.5,-222 248.5,-222 254.5,-222 260.5,-228 260.5,-234 260.5,-234 260.5,-248 260.5,-248 260.5,-254 254.5,-260 248.5,-260"/>
<text text-anchor="middle" x="179.5" y="-244.8" font-family="Times,serif" font-size="14.00">确认结算</text>
<text text-anchor="middle" x="179.5" y="-229.8" font-family="Times,serif" font-size="14.00">锁定头寸 &#45;&gt; LOCKED</text>
</g>
<!-- s6&#45;&gt;s7 -->
<g id="edge6" class="edge">
<title>s6&#45;&gt;s7</title>
<path fill="none" stroke="black" d="M179.5,-295.94C179.5,-295.94 179.5,-270.25 179.5,-270.25"/>
<polygon fill="black" stroke="black" points="183,-270.25 179.5,-260.25 176,-270.25 183,-270.25"/>
</g>
<!-- s8 -->
<g id="node8" class="node">
<title>s8</title>
<path fill="#f8fafc" stroke="#334155" d="M315.5,-186C315.5,-186 43.5,-186 43.5,-186 37.5,-186 31.5,-180 31.5,-174 31.5,-174 31.5,-160 31.5,-160 31.5,-154 37.5,-148 43.5,-148 43.5,-148 315.5,-148 315.5,-148 321.5,-148 327.5,-154 327.5,-160 327.5,-160 327.5,-174 327.5,-174 327.5,-180 321.5,-186 315.5,-186"/>
<text text-anchor="middle" x="179.5" y="-170.8" font-family="Times,serif" font-size="14.00">SettlementBill CREATED/CONFIRMED</text>
<text text-anchor="middle" x="179.5" y="-155.8" font-family="Times,serif" font-size="14.00">批次、结算单、明细</text>
</g>
<!-- s7&#45;&gt;s8 -->
<g id="edge7" class="edge">
<title>s7&#45;&gt;s8</title>
<path fill="none" stroke="black" d="M179.5,-221.94C179.5,-221.94 179.5,-196.25 179.5,-196.25"/>
<polygon fill="black" stroke="black" points="183,-196.25 179.5,-186.25 176,-196.25 183,-196.25"/>
</g>
<!-- s9 -->
<g id="node9" class="node">
<title>s9</title>
<path fill="#f8fafc" stroke="#334155" d="M316.5,-112C316.5,-112 42.5,-112 42.5,-112 36.5,-112 30.5,-106 30.5,-100 30.5,-100 30.5,-86 30.5,-86 30.5,-80 36.5,-74 42.5,-74 42.5,-74 316.5,-74 316.5,-74 322.5,-74 328.5,-80 328.5,-86 328.5,-86 328.5,-100 328.5,-100 328.5,-106 322.5,-112 316.5,-112"/>
<text text-anchor="middle" x="179.5" y="-96.8" font-family="Times,serif" font-size="14.00">AccountingPostingOrder REQUESTING</text>
<text text-anchor="middle" x="179.5" y="-81.8" font-family="Times,serif" font-size="14.00">调用账户账务</text>
</g>
<!-- s8&#45;&gt;s9 -->
<g id="edge8" class="edge">
<title>s8&#45;&gt;s9</title>
<path fill="none" stroke="black" d="M179.5,-147.94C179.5,-147.94 179.5,-122.25 179.5,-122.25"/>
<polygon fill="black" stroke="black" points="183,-122.25 179.5,-112.25 176,-122.25 183,-122.25"/>
</g>
<!-- s10 -->
<g id="node10" class="node">
<title>s10</title>
<path fill="#f8fafc" stroke="#334155" d="M306.5,-38C306.5,-38 52.5,-38 52.5,-38 46.5,-38 40.5,-32 40.5,-26 40.5,-26 40.5,-12 40.5,-12 40.5,-6 46.5,0 52.5,0 52.5,0 306.5,0 306.5,0 312.5,0 318.5,-6 318.5,-12 318.5,-12 318.5,-26 318.5,-26 318.5,-32 312.5,-38 306.5,-38"/>
<text text-anchor="middle" x="179.5" y="-22.8" font-family="Times,serif" font-size="14.00">ACCOUNTED / FAILED / UNKNOWN</text>
<text text-anchor="middle" x="179.5" y="-7.8" font-family="Times,serif" font-size="14.00">状态联动回写</text>
</g>
<!-- s9&#45;&gt;s10 -->
<g id="edge9" class="edge">
<title>s9&#45;&gt;s10</title>
<path fill="none" stroke="black" d="M179.5,-73.94C179.5,-73.94 179.5,-48.25 179.5,-48.25"/>
<polygon fill="black" stroke="black" points="183,-48.25 179.5,-38.25 176,-48.25 183,-48.25"/>
</g>
</g>
</svg>
