<?xml version="1.0" encoding="UTF-8" standalone="no"?>
<!DOCTYPE svg PUBLIC "-//W3C//DTD SVG 1.1//EN"
 "http://www.w3.org/Graphics/SVG/1.1/DTD/svg11.dtd">
<!-- Generated by graphviz version 2.42.4 (0)
 -->
<!-- Title: state Pages: 1 -->
<svg width="1496pt" height="207pt"
 viewBox="0.00 0.00 1495.81 207.00" xmlns="http://www.w3.org/2000/svg" xmlns:xlink="http://www.w3.org/1999/xlink">
<g id="graph0" class="graph" transform="scale(1 1) rotate(0) translate(4 203)">
<title>state</title>
<polygon fill="white" stroke="transparent" points="-4,4 -4,-203 1491.81,-203 1491.81,4 -4,4"/>
<text text-anchor="middle" x="743.9" y="-180.6" font-family="Noto Sans CJK SC" font-size="18.00">状态生命周期：头寸、结算单、入账单联动</text>
<!-- p1 -->
<g id="node1" class="node">
<title>p1</title>
<ellipse fill="#f5f3ff" stroke="#7c3aed" cx="68.89" cy="-84" rx="68.79" ry="18"/>
<text text-anchor="middle" x="68.89" y="-80.3" font-family="Times,serif" font-size="14.00">IN_TRANSIT</text>
</g>
<!-- p2 -->
<g id="node2" class="node">
<title>p2</title>
<ellipse fill="#f5f3ff" stroke="#7c3aed" cx="288.98" cy="-84" rx="57.39" ry="18"/>
<text text-anchor="middle" x="288.98" y="-80.3" font-family="Times,serif" font-size="14.00">ELIGIBLE</text>
</g>
<!-- p1&#45;&gt;p2 -->
<g id="edge1" class="edge">
<title>p1&#45;&gt;p2</title>
<path fill="none" stroke="black" d="M137.93,-84C137.93,-84 221.64,-84 221.64,-84"/>
<polygon fill="black" stroke="black" points="221.64,-87.5 231.64,-84 221.64,-80.5 221.64,-87.5"/>
<text text-anchor="middle" x="184.79" y="-87.8" font-family="Times,serif" font-size="14.00">账期成熟</text>
</g>
<!-- p3 -->
<g id="node3" class="node">
<title>p3</title>
<ellipse fill="#f5f3ff" stroke="#7c3aed" cx="492.17" cy="-84" rx="51.99" ry="18"/>
<text text-anchor="middle" x="492.17" y="-80.3" font-family="Times,serif" font-size="14.00">LOCKED</text>
</g>
<!-- p2&#45;&gt;p3 -->
<g id="edge2" class="edge">
<title>p2&#45;&gt;p3</title>
<path fill="none" stroke="black" d="M346.39,-84C346.39,-84 430.11,-84 430.11,-84"/>
<polygon fill="black" stroke="black" points="430.11,-87.5 440.11,-84 430.11,-80.5 430.11,-87.5"/>
<text text-anchor="middle" x="393.18" y="-87.8" font-family="Times,serif" font-size="14.00">确认结算</text>
</g>
<!-- p4 -->
<g id="node4" class="node">
<title>p4</title>
<ellipse fill="#f5f3ff" stroke="#7c3aed" cx="785.71" cy="-84" rx="147.57" ry="18"/>
<text text-anchor="middle" x="785.71" y="-80.3" font-family="Times,serif" font-size="14.00">ACCOUNTING_PROCESSING</text>
</g>
<!-- p3&#45;&gt;p4 -->
<g id="edge3" class="edge">
<title>p3&#45;&gt;p4</title>
<path fill="none" stroke="black" d="M544.31,-84C544.31,-84 627.99,-84 627.99,-84"/>
<polygon fill="black" stroke="black" points="627.99,-87.5 637.99,-84 627.99,-80.5 627.99,-87.5"/>
<text text-anchor="middle" x="591.17" y="-87.8" font-family="Times,serif" font-size="14.00">发起入账</text>
</g>
<!-- p5 -->
<g id="node5" class="node">
<title>p5</title>
<ellipse fill="#ffe4e6" stroke="#7c3aed" cx="1370.17" cy="-105" rx="117.78" ry="18"/>
<text text-anchor="middle" x="1370.17" y="-101.3" font-family="Times,serif" font-size="14.00">ACCOUNTING_FAILED</text>
</g>
<!-- p4&#45;&gt;p5 -->
<g id="edge5" class="edge">
<title>p4&#45;&gt;p5</title>
<path fill="none" stroke="black" d="M917.96,-92C917.96,-92 1278.42,-92 1278.42,-92"/>
<polygon fill="black" stroke="black" points="1278.42,-95.5 1288.42,-92 1278.42,-88.5 1278.42,-95.5"/>
<text text-anchor="middle" x="1092.89" y="-159.8" font-family="Times,serif" font-size="14.00">入账失败</text>
</g>
<!-- p6 -->
<g id="node6" class="node">
<title>p6</title>
<ellipse fill="#fef3c7" stroke="#7c3aed" cx="1092.89" cy="-51" rx="65.79" ry="18"/>
<text text-anchor="middle" x="1092.89" y="-47.3" font-family="Times,serif" font-size="14.00">UNKNOWN</text>
</g>
<!-- p4&#45;&gt;p6 -->
<g id="edge6" class="edge">
<title>p4&#45;&gt;p6</title>
<path fill="none" stroke="black" d="M913.69,-75C998.34,-75 1093.81,-75 1093.81,-75 1093.81,-75 1093.81,-74.42 1093.81,-74.42"/>
<polygon fill="black" stroke="black" points="1097.31,-79.19 1093.81,-69.19 1090.31,-79.19 1097.31,-79.19"/>
<text text-anchor="middle" x="980.24" y="-66.8" font-family="Times,serif" font-size="14.00">结果未知</text>
</g>
<!-- p7 -->
<g id="node7" class="node">
<title>p7</title>
<ellipse fill="#dcfce7" stroke="#7c3aed" cx="1370.17" cy="-19" rx="73.39" ry="18"/>
<text text-anchor="middle" x="1370.17" y="-15.3" font-family="Times,serif" font-size="14.00">ACCOUNTED</text>
</g>
<!-- p4&#45;&gt;p7 -->
<g id="edge4" class="edge">
<title>p4&#45;&gt;p7</title>
<path fill="none" stroke="black" d="M931.47,-81C1104.76,-81 1370.81,-81 1370.81,-81 1370.81,-81 1370.81,-47.27 1370.81,-47.27"/>
<polygon fill="black" stroke="black" points="1374.31,-47.27 1370.81,-37.27 1367.31,-47.27 1374.31,-47.27"/>
<text text-anchor="middle" x="1092.89" y="-3.8" font-family="Times,serif" font-size="14.00">入账成功</text>
</g>
<!-- p5&#45;&gt;p4 -->
<g id="edge7" class="edge">
<title>p5&#45;&gt;p4</title>
<path fill="none" stroke="black" d="M1264.67,-97C1264.67,-97 897.94,-97 897.94,-97"/>
<polygon fill="black" stroke="black" points="897.94,-93.5 887.94,-97 897.94,-100.5 897.94,-93.5"/>
<text text-anchor="middle" x="1092.89" y="-108.8" font-family="Times,serif" font-size="14.00">重试</text>
</g>
<!-- p6&#45;&gt;p5 -->
<g id="edge9" class="edge">
<title>p6&#45;&gt;p5</title>
<path fill="none" stroke="black" d="M1158.31,-53C1210.46,-53 1274.81,-53 1274.81,-53 1274.81,-53 1274.81,-84.23 1274.81,-84.23"/>
<polygon fill="black" stroke="black" points="1271.31,-84.23 1274.81,-94.23 1278.31,-84.23 1271.31,-84.23"/>
<text text-anchor="middle" x="1205.53" y="-77.8" font-family="Times,serif" font-size="14.00">查账失败</text>
</g>
<!-- p6&#45;&gt;p7 -->
<g id="edge8" class="edge">
<title>p6&#45;&gt;p7</title>
<path fill="none" stroke="black" d="M1093.81,-32.81C1093.81,-24.72 1093.81,-17 1093.81,-17 1093.81,-17 1286.84,-17 1286.84,-17"/>
<polygon fill="black" stroke="black" points="1286.84,-20.5 1296.84,-17 1286.84,-13.5 1286.84,-20.5"/>
<text text-anchor="middle" x="1205.53" y="-38.8" font-family="Times,serif" font-size="14.00">查账成功</text>
</g>
</g>
</svg>
