<?xml version="1.0" encoding="UTF-8" standalone="no"?>
<!DOCTYPE svg PUBLIC "-//W3C//DTD SVG 1.1//EN"
 "http://www.w3.org/Graphics/SVG/1.1/DTD/svg11.dtd">
<!-- Generated by graphviz version 2.42.4 (0)
 -->
<!-- Title: lin Pages: 1 -->
<svg width="1144pt" height="126pt"
 viewBox="0.00 0.00 1144.00 126.00" xmlns="http://www.w3.org/2000/svg" xmlns:xlink="http://www.w3.org/1999/xlink">
<g id="graph0" class="graph" transform="scale(1 1) rotate(0) translate(4 122)">
<title>lin</title>
<polygon fill="white" stroke="transparent" points="-4,4 -4,-122 1140,-122 1140,4 -4,4"/>
<text text-anchor="middle" x="568" y="-99.6" font-family="Noto Sans CJK SC" font-size="18.00">数据血缘：资金链路可追溯</text>
<!-- event -->
<g id="node1" class="node">
<title>event</title>
<path fill="#f8fafc" stroke="#475569" d="M122,-90C122,-90 12,-90 12,-90 6,-90 0,-84 0,-78 0,-78 0,-66 0,-66 0,-60 6,-54 12,-54 12,-54 122,-54 122,-54 128,-54 134,-60 134,-66 134,-66 134,-78 134,-78 134,-84 128,-90 122,-90"/>
<text text-anchor="middle" x="67" y="-68.3" font-family="Times,serif" font-size="14.00">source_event_no</text>
</g>
<!-- clearing -->
<g id="node2" class="node">
<title>clearing</title>
<path fill="#f8fafc" stroke="#475569" d="M256,-90C256,-90 182,-90 182,-90 176,-90 170,-84 170,-78 170,-78 170,-66 170,-66 170,-60 176,-54 182,-54 182,-54 256,-54 256,-54 262,-54 268,-60 268,-66 268,-66 268,-78 268,-78 268,-84 262,-90 256,-90"/>
<text text-anchor="middle" x="219" y="-68.3" font-family="Times,serif" font-size="14.00">clearing_no</text>
</g>
<!-- event&#45;&gt;clearing -->
<g id="edge1" class="edge">
<title>event&#45;&gt;clearing</title>
<path fill="none" stroke="black" d="M134.11,-72C134.11,-72 159.59,-72 159.59,-72"/>
<polygon fill="black" stroke="black" points="159.59,-75.5 169.59,-72 159.59,-68.5 159.59,-75.5"/>
</g>
<!-- item -->
<g id="node3" class="node">
<title>item</title>
<path fill="#f8fafc" stroke="#475569" d="M429,-90C429,-90 316,-90 316,-90 310,-90 304,-84 304,-78 304,-78 304,-66 304,-66 304,-60 310,-54 316,-54 316,-54 429,-54 429,-54 435,-54 441,-60 441,-66 441,-66 441,-78 441,-78 441,-84 435,-90 429,-90"/>
<text text-anchor="middle" x="372.5" y="-68.3" font-family="Times,serif" font-size="14.00">clearing_item_no</text>
</g>
<!-- clearing&#45;&gt;item -->
<g id="edge2" class="edge">
<title>clearing&#45;&gt;item</title>
<path fill="none" stroke="black" d="M268.41,-72C268.41,-72 293.89,-72 293.89,-72"/>
<polygon fill="black" stroke="black" points="293.89,-75.5 303.89,-72 293.89,-68.5 293.89,-75.5"/>
</g>
<!-- position -->
<g id="node4" class="node">
<title>position</title>
<path fill="#f8fafc" stroke="#475569" d="M563,-90C563,-90 489,-90 489,-90 483,-90 477,-84 477,-78 477,-78 477,-66 477,-66 477,-60 483,-54 489,-54 489,-54 563,-54 563,-54 569,-54 575,-60 575,-66 575,-66 575,-78 575,-78 575,-84 569,-90 563,-90"/>
<text text-anchor="middle" x="526" y="-68.3" font-family="Times,serif" font-size="14.00">position_no</text>
</g>
<!-- item&#45;&gt;position -->
<g id="edge3" class="edge">
<title>item&#45;&gt;position</title>
<path fill="none" stroke="black" d="M441.17,-72C441.17,-72 466.7,-72 466.7,-72"/>
<polygon fill="black" stroke="black" points="466.7,-75.5 476.7,-72 466.7,-68.5 466.7,-75.5"/>
</g>
<!-- billitem -->
<g id="node7" class="node">
<title>billitem</title>
<path fill="#f8fafc" stroke="#475569" d="M701,-90C701,-90 623,-90 623,-90 617,-90 611,-84 611,-78 611,-78 611,-66 611,-66 611,-60 617,-54 623,-54 623,-54 701,-54 701,-54 707,-54 713,-60 713,-66 713,-66 713,-78 713,-78 713,-84 707,-90 701,-90"/>
<text text-anchor="middle" x="662" y="-68.3" font-family="Times,serif" font-size="14.00">bill_item_no</text>
</g>
<!-- position&#45;&gt;billitem -->
<g id="edge4" class="edge">
<title>position&#45;&gt;billitem</title>
<path fill="none" stroke="black" d="M575.1,-78C575.1,-78 600.68,-78 600.68,-78"/>
<polygon fill="black" stroke="black" points="600.68,-81.5 610.68,-78 600.68,-74.5 600.68,-81.5"/>
</g>
<!-- batch -->
<g id="node5" class="node">
<title>batch</title>
<path fill="#f8fafc" stroke="#475569" d="M400.5,-36C400.5,-36 344.5,-36 344.5,-36 338.5,-36 332.5,-30 332.5,-24 332.5,-24 332.5,-12 332.5,-12 332.5,-6 338.5,0 344.5,0 344.5,0 400.5,0 400.5,0 406.5,0 412.5,-6 412.5,-12 412.5,-12 412.5,-24 412.5,-24 412.5,-30 406.5,-36 400.5,-36"/>
<text text-anchor="middle" x="372.5" y="-14.3" font-family="Times,serif" font-size="14.00">batch_no</text>
</g>
<!-- bill -->
<g id="node6" class="node">
<title>bill</title>
<path fill="#f8fafc" stroke="#475569" d="M545.5,-36C545.5,-36 506.5,-36 506.5,-36 500.5,-36 494.5,-30 494.5,-24 494.5,-24 494.5,-12 494.5,-12 494.5,-6 500.5,0 506.5,0 506.5,0 545.5,0 545.5,0 551.5,0 557.5,-6 557.5,-12 557.5,-12 557.5,-24 557.5,-24 557.5,-30 551.5,-36 545.5,-36"/>
<text text-anchor="middle" x="526" y="-14.3" font-family="Times,serif" font-size="14.00">bill_no</text>
</g>
<!-- batch&#45;&gt;bill -->
<g id="edge5" class="edge">
<title>batch&#45;&gt;bill</title>
<path fill="none" stroke="black" d="M412.83,-18C412.83,-18 484.17,-18 484.17,-18"/>
<polygon fill="black" stroke="black" points="484.17,-21.5 494.17,-18 484.17,-14.5 484.17,-21.5"/>
</g>
<!-- bill&#45;&gt;billitem -->
<g id="edge6" class="edge">
<title>bill&#45;&gt;billitem</title>
<path fill="none" stroke="black" d="M557.54,-24C574.92,-24 593,-24 593,-24 593,-24 593,-66 593,-66 593,-66 600.77,-66 600.77,-66"/>
<polygon fill="black" stroke="black" points="600.77,-69.5 610.77,-66 600.77,-62.5 600.77,-69.5"/>
</g>
<!-- posting -->
<g id="node8" class="node">
<title>posting</title>
<path fill="#f8fafc" stroke="#475569" d="M697,-36C697,-36 627,-36 627,-36 621,-36 615,-30 615,-24 615,-24 615,-12 615,-12 615,-6 621,0 627,0 627,0 697,0 697,0 703,0 709,-6 709,-12 709,-12 709,-24 709,-24 709,-30 703,-36 697,-36"/>
<text text-anchor="middle" x="662" y="-14.3" font-family="Times,serif" font-size="14.00">posting_no</text>
</g>
<!-- bill&#45;&gt;posting -->
<g id="edge7" class="edge">
<title>bill&#45;&gt;posting</title>
<path fill="none" stroke="black" d="M557.54,-12C557.54,-12 604.89,-12 604.89,-12"/>
<polygon fill="black" stroke="black" points="604.89,-15.5 614.89,-12 604.89,-8.5 604.89,-15.5"/>
</g>
<!-- acctreq -->
<g id="node9" class="node">
<title>acctreq</title>
<path fill="#f8fafc" stroke="#475569" d="M917,-36C917,-36 761,-36 761,-36 755,-36 749,-30 749,-24 749,-24 749,-12 749,-12 749,-6 755,0 761,0 761,0 917,0 917,0 923,0 929,-6 929,-12 929,-12 929,-24 929,-24 929,-30 923,-36 917,-36"/>
<text text-anchor="middle" x="839" y="-14.3" font-family="Times,serif" font-size="14.00">accounting_request_no</text>
</g>
<!-- posting&#45;&gt;acctreq -->
<g id="edge8" class="edge">
<title>posting&#45;&gt;acctreq</title>
<path fill="none" stroke="black" d="M709.43,-18C709.43,-18 738.72,-18 738.72,-18"/>
<polygon fill="black" stroke="black" points="738.72,-21.5 748.72,-18 738.72,-14.5 738.72,-21.5"/>
</g>
<!-- flow -->
<g id="node10" class="node">
<title>flow</title>
<path fill="#f8fafc" stroke="#475569" d="M1124,-36C1124,-36 977,-36 977,-36 971,-36 965,-30 965,-24 965,-24 965,-12 965,-12 965,-6 971,0 977,0 977,0 1124,0 1124,0 1130,0 1136,-6 1136,-12 1136,-12 1136,-24 1136,-24 1136,-30 1130,-36 1124,-36"/>
<text text-anchor="middle" x="1050.5" y="-14.3" font-family="Times,serif" font-size="14.00">fund_account_flow_no</text>
</g>
<!-- acctreq&#45;&gt;flow -->
<g id="edge9" class="edge">
<title>acctreq&#45;&gt;flow</title>
<path fill="none" stroke="black" d="M929,-18C929,-18 954.95,-18 954.95,-18"/>
<polygon fill="black" stroke="black" points="954.95,-21.5 964.95,-18 954.95,-14.5 954.95,-21.5"/>
</g>
</g>
</svg>
