<?xml version="1.0" encoding="UTF-8" standalone="no"?>
<!DOCTYPE svg PUBLIC "-//W3C//DTD SVG 1.1//EN"
 "http://www.w3.org/Graphics/SVG/1.1/DTD/svg11.dtd">
<!-- Generated by graphviz version 2.42.4 (0)
 -->
<!-- Title: erd Pages: 1 -->
<svg width="1188pt" height="204pt"
 viewBox="0.00 0.00 1188.00 204.00" xmlns="http://www.w3.org/2000/svg" xmlns:xlink="http://www.w3.org/1999/xlink">
<g id="graph0" class="graph" transform="scale(1 1) rotate(0) translate(4 200)">
<title>erd</title>
<polygon fill="white" stroke="transparent" points="-4,4 -4,-200 1184,-200 1184,4 -4,4"/>
<text text-anchor="middle" x="590" y="-177.6" font-family="Noto Sans CJK SC" font-size="18.00">核心表关系：事实、清分、头寸、单据、入账</text>
<!-- policy -->
<g id="node1" class="node">
<title>policy</title>
<polygon fill="#f8fafc" stroke="#475569" points="0,-76.5 0,-112.5 172,-112.5 172,-76.5 0,-76.5"/>
<text text-anchor="middle" x="86" y="-90.8" font-family="Times,serif" font-size="14.00">ccs_settlement_policy</text>
</g>
<!-- rule -->
<g id="node2" class="node">
<title>rule</title>
<polygon fill="#f8fafc" stroke="#475569" points="248.5,-76.5 248.5,-112.5 371.5,-112.5 371.5,-76.5 248.5,-76.5"/>
<text text-anchor="middle" x="310" y="-90.8" font-family="Times,serif" font-size="14.00">ccs_policy_rule</text>
</g>
<!-- policy&#45;&gt;rule -->
<g id="edge1" class="edge">
<title>policy&#45;&gt;rule</title>
<path fill="none" stroke="black" d="M172.28,-94.5C172.28,-94.5 238.43,-94.5 238.43,-94.5"/>
<polygon fill="black" stroke="black" points="238.43,-98 248.43,-94.5 238.43,-91 238.43,-98"/>
<text text-anchor="middle" x="203" y="-98.3" font-family="Times,serif" font-size="14.00">1:N</text>
</g>
<!-- event -->
<g id="node3" class="node">
<title>event</title>
<polygon fill="#f8fafc" stroke="#475569" points="16,-131.5 16,-167.5 156,-167.5 156,-131.5 16,-131.5"/>
<text text-anchor="middle" x="86" y="-145.8" font-family="Times,serif" font-size="14.00">ccs_source_event</text>
</g>
<!-- cr -->
<g id="node4" class="node">
<title>cr</title>
<polygon fill="#f8fafc" stroke="#475569" points="234,-131.5 234,-167.5 386,-167.5 386,-131.5 234,-131.5"/>
<text text-anchor="middle" x="310" y="-145.8" font-family="Times,serif" font-size="14.00">ccs_clearing_result</text>
</g>
<!-- event&#45;&gt;cr -->
<g id="edge2" class="edge">
<title>event&#45;&gt;cr</title>
<path fill="none" stroke="black" d="M156.26,-149.5C156.26,-149.5 223.77,-149.5 223.77,-149.5"/>
<polygon fill="black" stroke="black" points="223.77,-153 233.77,-149.5 223.77,-146 223.77,-153"/>
<text text-anchor="middle" x="203" y="-153.3" font-family="Times,serif" font-size="14.00">1:1</text>
</g>
<!-- ci -->
<g id="node5" class="node">
<title>ci</title>
<polygon fill="#f8fafc" stroke="#475569" points="448,-131.5 448,-167.5 639,-167.5 639,-131.5 448,-131.5"/>
<text text-anchor="middle" x="543.5" y="-145.8" font-family="Times,serif" font-size="14.00">ccs_clearing_result_item</text>
</g>
<!-- cr&#45;&gt;ci -->
<g id="edge3" class="edge">
<title>cr&#45;&gt;ci</title>
<path fill="none" stroke="black" d="M386.13,-149.5C386.13,-149.5 437.84,-149.5 437.84,-149.5"/>
<polygon fill="black" stroke="black" points="437.85,-153 447.84,-149.5 437.84,-146 437.85,-153"/>
<text text-anchor="middle" x="417" y="-153.3" font-family="Times,serif" font-size="14.00">1:N</text>
</g>
<!-- pos -->
<g id="node6" class="node">
<title>pos</title>
<polygon fill="#f8fafc" stroke="#475569" points="701,-131.5 701,-167.5 888,-167.5 888,-131.5 701,-131.5"/>
<text text-anchor="middle" x="794.5" y="-145.8" font-family="Times,serif" font-size="14.00">ccs_settlement_position</text>
</g>
<!-- ci&#45;&gt;pos -->
<g id="edge4" class="edge">
<title>ci&#45;&gt;pos</title>
<path fill="none" stroke="black" d="M639.11,-149.5C639.11,-149.5 690.82,-149.5 690.82,-149.5"/>
<polygon fill="black" stroke="black" points="690.82,-153 700.82,-149.5 690.82,-146 690.82,-153"/>
<text text-anchor="middle" x="670" y="-153.3" font-family="Times,serif" font-size="14.00">1:1</text>
</g>
<!-- bi -->
<g id="node9" class="node">
<title>bi</title>
<polygon fill="#f8fafc" stroke="#475569" points="969.5,-120.5 969.5,-156.5 1160.5,-156.5 1160.5,-120.5 969.5,-120.5"/>
<text text-anchor="middle" x="1065" y="-134.8" font-family="Times,serif" font-size="14.00">ccs_settlement_bill_item</text>
</g>
<!-- pos&#45;&gt;bi -->
<g id="edge7" class="edge">
<title>pos&#45;&gt;bi</title>
<path fill="none" stroke="black" d="M888.35,-144C888.35,-144 959.48,-144 959.48,-144"/>
<polygon fill="black" stroke="black" points="959.48,-147.5 969.48,-144 959.48,-140.5 959.48,-147.5"/>
<text text-anchor="middle" x="919" y="-153.3" font-family="Times,serif" font-size="14.00">1:1</text>
</g>
<!-- batch -->
<g id="node7" class="node">
<title>batch</title>
<polygon fill="#f8fafc" stroke="#475569" points="458.5,-55.5 458.5,-91.5 628.5,-91.5 628.5,-55.5 458.5,-55.5"/>
<text text-anchor="middle" x="543.5" y="-69.8" font-family="Times,serif" font-size="14.00">ccs_settlement_batch</text>
</g>
<!-- bill -->
<g id="node8" class="node">
<title>bill</title>
<polygon fill="#f8fafc" stroke="#475569" points="718.5,-55.5 718.5,-91.5 870.5,-91.5 870.5,-55.5 718.5,-55.5"/>
<text text-anchor="middle" x="794.5" y="-69.8" font-family="Times,serif" font-size="14.00">ccs_settlement_bill</text>
</g>
<!-- batch&#45;&gt;bill -->
<g id="edge5" class="edge">
<title>batch&#45;&gt;bill</title>
<path fill="none" stroke="black" d="M628.83,-73.5C628.83,-73.5 708.25,-73.5 708.25,-73.5"/>
<polygon fill="black" stroke="black" points="708.25,-77 718.25,-73.5 708.25,-70 708.25,-77"/>
<text text-anchor="middle" x="670" y="-77.3" font-family="Times,serif" font-size="14.00">1:N</text>
</g>
<!-- bill&#45;&gt;bi -->
<g id="edge6" class="edge">
<title>bill&#45;&gt;bi</title>
<path fill="none" stroke="black" d="M795,-91.69C795,-106.68 795,-125.5 795,-125.5 795,-125.5 959.43,-125.5 959.43,-125.5"/>
<polygon fill="black" stroke="black" points="959.43,-129 969.43,-125.5 959.43,-122 959.43,-129"/>
<text text-anchor="middle" x="919" y="-115.3" font-family="Times,serif" font-size="14.00">1:N</text>
</g>
<!-- post -->
<g id="node10" class="node">
<title>post</title>
<polygon fill="#f8fafc" stroke="#475569" points="950,-55.5 950,-91.5 1180,-91.5 1180,-55.5 950,-55.5"/>
<text text-anchor="middle" x="1065" y="-69.8" font-family="Times,serif" font-size="14.00">ccs_accounting_posting_order</text>
</g>
<!-- bill&#45;&gt;post -->
<g id="edge8" class="edge">
<title>bill&#45;&gt;post</title>
<path fill="none" stroke="black" d="M870.57,-73.5C870.57,-73.5 939.84,-73.5 939.84,-73.5"/>
<polygon fill="black" stroke="black" points="939.84,-77 949.84,-73.5 939.84,-70 939.84,-77"/>
<text text-anchor="middle" x="919" y="-77.3" font-family="Times,serif" font-size="14.00">1:1</text>
</g>
<!-- log -->
<g id="node11" class="node">
<title>log</title>
<polygon fill="#f8fafc" stroke="#475569" points="951.5,-0.5 951.5,-36.5 1178.5,-36.5 1178.5,-0.5 951.5,-0.5"/>
<text text-anchor="middle" x="1065" y="-14.8" font-family="Times,serif" font-size="14.00">ccs_settlement_operation_log</text>
</g>
<!-- bill&#45;&gt;log -->
<g id="edge9" class="edge">
<title>bill&#45;&gt;log</title>
<path fill="none" stroke="black" d="M795,-55.49C795,-39.45 795,-18.5 795,-18.5 795,-18.5 941.28,-18.5 941.28,-18.5"/>
<polygon fill="black" stroke="black" points="941.28,-22 951.28,-18.5 941.28,-15 941.28,-22"/>
<text text-anchor="middle" x="919" y="-22.3" font-family="Times,serif" font-size="14.00">1:N</text>
</g>
</g>
</svg>
