<?xml version="1.0" encoding="UTF-8" standalone="no"?>
<!DOCTYPE svg PUBLIC "-//W3C//DTD SVG 1.1//EN"
 "http://www.w3.org/Graphics/SVG/1.1/DTD/svg11.dtd">
<!-- Generated by graphviz version 2.42.4 (0)
 -->
<!-- Title: qm Pages: 1 -->
<svg width="358pt" height="466pt"
 viewBox="0.00 0.00 358.00 466.00" xmlns="http://www.w3.org/2000/svg" xmlns:xlink="http://www.w3.org/1999/xlink">
<g id="graph0" class="graph" transform="scale(1 1) rotate(0) translate(4 462)">
<title>qm</title>
<polygon fill="white" stroke="transparent" points="-4,4 -4,-462 354,-462 354,4 -4,4"/>
<text text-anchor="middle" x="175" y="-439.6" font-family="Noto Sans CJK SC" font-size="18.00">质量属性驱动设计：资金系统不是 CRUD</text>
<!-- core -->
<g id="node1" class="node">
<title>core</title>
<path fill="#0f6cbd" stroke="black" stroke-width="2" d="M85,-234C85,-234 12,-234 12,-234 6,-234 0,-228 0,-222 0,-222 0,-208 0,-208 0,-202 6,-196 12,-196 12,-196 85,-196 85,-196 91,-196 97,-202 97,-208 97,-208 97,-222 97,-222 97,-228 91,-234 85,-234"/>
<text text-anchor="middle" x="48.5" y="-218.8" font-family="Times,serif" font-size="14.00" fill="white">清结算平台</text>
<text text-anchor="middle" x="48.5" y="-203.8" font-family="Times,serif" font-size="14.00" fill="white">P0 正向闭环</text>
</g>
<!-- accuracy -->
<g id="node2" class="node">
<title>accuracy</title>
<path fill="#f8fafc" stroke="#475569" d="M302,-430C302,-430 181,-430 181,-430 175,-430 169,-424 169,-418 169,-418 169,-404 169,-404 169,-398 175,-392 181,-392 181,-392 302,-392 302,-392 308,-392 314,-398 314,-404 314,-404 314,-418 314,-418 314,-424 308,-430 302,-430"/>
<text text-anchor="middle" x="241.5" y="-414.8" font-family="Times,serif" font-size="14.00">资金准确性</text>
<text text-anchor="middle" x="241.5" y="-399.8" font-family="Times,serif" font-size="14.00">金额校验、明细汇总</text>
</g>
<!-- core&#45;&gt;accuracy -->
<g id="edge1" class="edge">
<title>core&#45;&gt;accuracy</title>
<path fill="none" stroke="black" d="M49,-234.15C49,-283.47 49,-411 49,-411 49,-411 159,-411 159,-411"/>
<polygon fill="black" stroke="black" points="159,-414.5 169,-411 159,-407.5 159,-414.5"/>
</g>
<!-- idempotent -->
<g id="node3" class="node">
<title>idempotent</title>
<path fill="#f8fafc" stroke="#475569" d="M338,-374C338,-374 145,-374 145,-374 139,-374 133,-368 133,-362 133,-362 133,-348 133,-348 133,-342 139,-336 145,-336 145,-336 338,-336 338,-336 344,-336 350,-342 350,-348 350,-348 350,-362 350,-362 350,-368 344,-374 338,-374"/>
<text text-anchor="middle" x="241.5" y="-358.8" font-family="Times,serif" font-size="14.00">幂等防重</text>
<text text-anchor="middle" x="241.5" y="-343.8" font-family="Times,serif" font-size="14.00">业务键 + idempotent + hash</text>
</g>
<!-- core&#45;&gt;idempotent -->
<g id="edge2" class="edge">
<title>core&#45;&gt;idempotent</title>
<path fill="none" stroke="black" d="M97.15,-231.5C117.72,-231.5 137,-231.5 137,-231.5 137,-231.5 137,-325.97 137,-325.97"/>
<polygon fill="black" stroke="black" points="133.5,-325.97 137,-335.97 140.5,-325.97 133.5,-325.97"/>
</g>
<!-- consistency -->
<g id="node4" class="node">
<title>consistency</title>
<path fill="#f8fafc" stroke="#475569" d="M319,-318C319,-318 164,-318 164,-318 158,-318 152,-312 152,-306 152,-306 152,-292 152,-292 152,-286 158,-280 164,-280 164,-280 319,-280 319,-280 325,-280 331,-286 331,-292 331,-292 331,-306 331,-306 331,-312 325,-318 319,-318"/>
<text text-anchor="middle" x="241.5" y="-302.8" font-family="Times,serif" font-size="14.00">一致性补偿</text>
<text text-anchor="middle" x="241.5" y="-287.8" font-family="Times,serif" font-size="14.00">事务边界 + UNKNOWN</text>
</g>
<!-- core&#45;&gt;consistency -->
<g id="edge3" class="edge">
<title>core&#45;&gt;consistency</title>
<path fill="none" stroke="black" d="M97.05,-229C132.72,-229 175,-229 175,-229 175,-229 175,-269.87 175,-269.87"/>
<polygon fill="black" stroke="black" points="171.5,-269.87 175,-279.87 178.5,-269.87 171.5,-269.87"/>
</g>
<!-- trace -->
<g id="node5" class="node">
<title>trace</title>
<path fill="#f8fafc" stroke="#475569" d="M273.5,-262C273.5,-262 209.5,-262 209.5,-262 203.5,-262 197.5,-256 197.5,-250 197.5,-250 197.5,-236 197.5,-236 197.5,-230 203.5,-224 209.5,-224 209.5,-224 273.5,-224 273.5,-224 279.5,-224 285.5,-230 285.5,-236 285.5,-236 285.5,-250 285.5,-250 285.5,-256 279.5,-262 273.5,-262"/>
<text text-anchor="middle" x="241.5" y="-246.8" font-family="Times,serif" font-size="14.00">可追溯</text>
<text text-anchor="middle" x="241.5" y="-231.8" font-family="Times,serif" font-size="14.00">全链路编号</text>
</g>
<!-- core&#45;&gt;trace -->
<g id="edge4" class="edge">
<title>core&#45;&gt;trace</title>
<path fill="none" stroke="black" d="M97.2,-226.5C97.2,-226.5 187.43,-226.5 187.43,-226.5"/>
<polygon fill="black" stroke="black" points="187.43,-230 197.43,-226.5 187.43,-223 187.43,-230"/>
</g>
<!-- scale -->
<g id="node6" class="node">
<title>scale</title>
<path fill="#f8fafc" stroke="#475569" d="M323.5,-206C323.5,-206 159.5,-206 159.5,-206 153.5,-206 147.5,-200 147.5,-194 147.5,-194 147.5,-180 147.5,-180 147.5,-174 153.5,-168 159.5,-168 159.5,-168 323.5,-168 323.5,-168 329.5,-168 335.5,-174 335.5,-180 335.5,-180 335.5,-194 335.5,-194 335.5,-200 329.5,-206 323.5,-206"/>
<text text-anchor="middle" x="241.5" y="-190.8" font-family="Times,serif" font-size="14.00">大规模处理</text>
<text text-anchor="middle" x="241.5" y="-175.8" font-family="Times,serif" font-size="14.00">分页任务、索引、归档预案</text>
</g>
<!-- core&#45;&gt;scale -->
<g id="edge5" class="edge">
<title>core&#45;&gt;scale</title>
<path fill="none" stroke="black" d="M97.2,-202.67C97.2,-202.67 137.29,-202.67 137.29,-202.67"/>
<polygon fill="black" stroke="black" points="137.29,-206.17 147.29,-202.67 137.29,-199.17 137.29,-206.17"/>
</g>
<!-- operable -->
<g id="node7" class="node">
<title>operable</title>
<path fill="#f8fafc" stroke="#475569" d="M295,-150C295,-150 188,-150 188,-150 182,-150 176,-144 176,-138 176,-138 176,-124 176,-124 176,-118 182,-112 188,-112 188,-112 295,-112 295,-112 301,-112 307,-118 307,-124 307,-124 307,-138 307,-138 307,-144 301,-150 295,-150"/>
<text text-anchor="middle" x="241.5" y="-134.8" font-family="Times,serif" font-size="14.00">可运营</text>
<text text-anchor="middle" x="241.5" y="-119.8" font-family="Times,serif" font-size="14.00">诊断、重试、审计</text>
</g>
<!-- core&#45;&gt;operable -->
<g id="edge6" class="edge">
<title>core&#45;&gt;operable</title>
<path fill="none" stroke="black" d="M65,-195.94C65,-171.16 65,-131 65,-131 65,-131 165.78,-131 165.78,-131"/>
<polygon fill="black" stroke="black" points="165.78,-134.5 175.78,-131 165.78,-127.5 165.78,-134.5"/>
</g>
<!-- extend -->
<g id="node8" class="node">
<title>extend</title>
<path fill="#f8fafc" stroke="#475569" d="M330.5,-94C330.5,-94 152.5,-94 152.5,-94 146.5,-94 140.5,-88 140.5,-82 140.5,-82 140.5,-68 140.5,-68 140.5,-62 146.5,-56 152.5,-56 152.5,-56 330.5,-56 330.5,-56 336.5,-56 342.5,-62 342.5,-68 342.5,-68 342.5,-82 342.5,-82 342.5,-88 336.5,-94 330.5,-94"/>
<text text-anchor="middle" x="241.5" y="-78.8" font-family="Times,serif" font-size="14.00">可扩展</text>
<text text-anchor="middle" x="241.5" y="-63.8" font-family="Times,serif" font-size="14.00">多业务、多参与方、策略快照</text>
</g>
<!-- core&#45;&gt;extend -->
<g id="edge7" class="edge">
<title>core&#45;&gt;extend</title>
<path fill="none" stroke="black" d="M97.09,-199.33C120.68,-199.33 144,-199.33 144,-199.33 144,-199.33 144,-104.15 144,-104.15"/>
<polygon fill="black" stroke="black" points="147.5,-104.15 144,-94.15 140.5,-104.15 147.5,-104.15"/>
</g>
<!-- test -->
<g id="node9" class="node">
<title>test</title>
<path fill="#f8fafc" stroke="#475569" d="M309,-38C309,-38 174,-38 174,-38 168,-38 162,-32 162,-26 162,-26 162,-12 162,-12 162,-6 168,0 174,0 174,0 309,0 309,0 315,0 321,-6 321,-12 321,-12 321,-26 321,-26 321,-32 315,-38 309,-38"/>
<text text-anchor="middle" x="241.5" y="-22.8" font-family="Times,serif" font-size="14.00">可测试</text>
<text text-anchor="middle" x="241.5" y="-7.8" font-family="Times,serif" font-size="14.00">状态机矩阵、异常用例</text>
</g>
<!-- core&#45;&gt;test -->
<g id="edge8" class="edge">
<title>core&#45;&gt;test</title>
<path fill="none" stroke="black" d="M33,-195.85C33,-146.53 33,-19 33,-19 33,-19 151.78,-19 151.78,-19"/>
<polygon fill="black" stroke="black" points="151.78,-22.5 161.78,-19 151.78,-15.5 151.78,-22.5"/>
</g>
</g>
</svg>
