<?xml version="1.0" encoding="UTF-8" standalone="no"?>
<!DOCTYPE svg PUBLIC "-//W3C//DTD SVG 1.1//EN"
 "http://www.w3.org/Graphics/SVG/1.1/DTD/svg11.dtd">
<!-- Generated by graphviz version 2.42.4 (0)
 -->
<!-- Title: G Pages: 1 -->
<svg width="1015pt" height="502pt"
 viewBox="14.40 14.40 1000.40 487.56" xmlns="http://www.w3.org/2000/svg" xmlns:xlink="http://www.w3.org/1999/xlink">
<g id="graph0" class="graph" transform="scale(1 1) rotate(0) translate(18.4 483.56)">
<title>G</title>
<polygon fill="white" stroke="transparent" points="-4,4 -4,-469.16 982,-469.16 982,4 -4,4"/>
<g id="clust1" class="cluster">
<title>cluster_src</title>
<polygon fill="white" stroke="#cbd5e1" points="8,-18.16 8,-305.16 255,-305.16 255,-18.16 8,-18.16"/>
<text text-anchor="middle" x="131.5" y="-289.96" font-family="Noto Sans CJK SC" font-size="14.00">行业案例输入</text>
</g>
<g id="clust2" class="cluster">
<title>cluster_absorb</title>
<polygon fill="white" stroke="#cbd5e1" points="313,-18.16 313,-457.16 663,-457.16 663,-18.16 313,-18.16"/>
<text text-anchor="middle" x="488" y="-441.96" font-family="Noto Sans CJK SC" font-size="14.00">吸收为清结算平台通用能力</text>
</g>
<g id="clust3" class="cluster">
<title>cluster_cut</title>
<polygon fill="white" stroke="#cbd5e1" points="721,-12.16 721,-235.16 970,-235.16 970,-12.16 721,-12.16"/>
<text text-anchor="middle" x="845.5" y="-219.96" font-family="Noto Sans CJK SC" font-size="14.00">P0 裁剪</text>
</g>
<!-- a1 -->
<g id="node1" class="node">
<title>a1</title>
<path fill="#f8fafc" stroke="#cbd5e1" d="M243,-282.16C243,-282.16 20,-282.16 20,-282.16 14,-282.16 8,-276.16 8,-270.16 8,-270.16 8,-258.16 8,-258.16 8,-252.16 14,-246.16 20,-246.16 20,-246.16 243,-246.16 243,-246.16 249,-246.16 255,-252.16 255,-258.16 255,-258.16 255,-270.16 255,-270.16 255,-276.16 249,-282.16 243,-282.16"/>
<text text-anchor="middle" x="131.5" y="-267.56" font-family="Noto Sans CJK SC" font-size="12.00">银行收单</text>
<text text-anchor="middle" x="131.5" y="-254.56" font-family="Noto Sans CJK SC" font-size="12.00">T/D/S 账期、虚拟户、最小/最大结算、留存</text>
</g>
<!-- b1 -->
<g id="node5" class="node">
<title>b1</title>
<path fill="#f8fafc" stroke="#cbd5e1" d="M556.5,-130.16C556.5,-130.16 419.5,-130.16 419.5,-130.16 413.5,-130.16 407.5,-124.16 407.5,-118.16 407.5,-118.16 407.5,-106.16 407.5,-106.16 407.5,-100.16 413.5,-94.16 419.5,-94.16 419.5,-94.16 556.5,-94.16 556.5,-94.16 562.5,-94.16 568.5,-100.16 568.5,-106.16 568.5,-106.16 568.5,-118.16 568.5,-118.16 568.5,-124.16 562.5,-130.16 556.5,-130.16"/>
<text text-anchor="middle" x="488" y="-115.56" font-family="Noto Sans CJK SC" font-size="12.00">ClearingSettlementPolicy</text>
<text text-anchor="middle" x="488" y="-102.56" font-family="Noto Sans CJK SC" font-size="12.00">清分结算策略</text>
</g>
<!-- a1&#45;&gt;b1 -->
<g id="edge1" class="edge">
<title>a1&#45;&gt;b1</title>
<path fill="none" stroke="#64748b" d="M215.51,-246.11C229.4,-240.98 243.14,-234.45 255,-226.16 289.83,-201.83 277.16,-172.98 313,-150.16 337.96,-134.27 368.58,-124.95 397.14,-119.5"/>
<polygon fill="#64748b" stroke="#64748b" points="397.91,-122.92 407.14,-117.74 396.69,-116.03 397.91,-122.92"/>
</g>
<!-- b3 -->
<g id="node7" class="node">
<title>b3</title>
<path fill="#f8fafc" stroke="#cbd5e1" d="M651,-358.16C651,-358.16 325,-358.16 325,-358.16 319,-358.16 313,-352.16 313,-346.16 313,-346.16 313,-334.16 313,-334.16 313,-328.16 319,-322.16 325,-322.16 325,-322.16 651,-322.16 651,-322.16 657,-322.16 663,-328.16 663,-334.16 663,-334.16 663,-346.16 663,-346.16 663,-352.16 657,-358.16 651,-358.16"/>
<text text-anchor="middle" x="488" y="-343.56" font-family="Noto Sans CJK SC" font-size="12.00">SettlementMode</text>
<text text-anchor="middle" x="488" y="-330.56" font-family="Noto Sans CJK SC" font-size="12.00">INTERNAL_ACCOUNT / DIRECT_BANK / EXTERNAL_PAYOUT</text>
</g>
<!-- a1&#45;&gt;b3 -->
<g id="edge2" class="edge">
<title>a1&#45;&gt;b3</title>
<path fill="none" stroke="#64748b" d="M216.51,-282.17C269.52,-293.54 338.08,-308.23 392.91,-319.99"/>
<polygon fill="#64748b" stroke="#64748b" points="392.47,-323.47 402.98,-322.15 393.93,-316.63 392.47,-323.47"/>
</g>
<!-- b4 -->
<g id="node8" class="node">
<title>b4</title>
<path fill="#f8fafc" stroke="#cbd5e1" d="M645,-282.16C645,-282.16 331,-282.16 331,-282.16 325,-282.16 319,-276.16 319,-270.16 319,-270.16 319,-258.16 319,-258.16 319,-252.16 325,-246.16 331,-246.16 331,-246.16 645,-246.16 645,-246.16 651,-246.16 657,-252.16 657,-258.16 657,-258.16 657,-270.16 657,-270.16 657,-276.16 651,-282.16 645,-282.16"/>
<text text-anchor="middle" x="488" y="-267.56" font-family="Noto Sans CJK SC" font-size="12.00">InitiationMode</text>
<text text-anchor="middle" x="488" y="-254.56" font-family="Noto Sans CJK SC" font-size="12.00">OPERATOR_MANUAL / AUTO / MERCHANT_SELF_SERVICE</text>
</g>
<!-- a1&#45;&gt;b4 -->
<g id="edge3" class="edge">
<title>a1&#45;&gt;b4</title>
<path fill="none" stroke="#64748b" d="M255.49,-264.16C272.79,-264.16 290.84,-264.16 308.91,-264.16"/>
<polygon fill="#64748b" stroke="#64748b" points="308.95,-267.66 318.95,-264.16 308.95,-260.66 308.95,-267.66"/>
</g>
<!-- b5 -->
<g id="node9" class="node">
<title>b5</title>
<path fill="#f8fafc" stroke="#cbd5e1" d="M537,-434.16C537,-434.16 439,-434.16 439,-434.16 433,-434.16 427,-428.16 427,-422.16 427,-422.16 427,-410.16 427,-410.16 427,-404.16 433,-398.16 439,-398.16 439,-398.16 537,-398.16 537,-398.16 543,-398.16 549,-404.16 549,-410.16 549,-410.16 549,-422.16 549,-422.16 549,-428.16 543,-434.16 537,-434.16"/>
<text text-anchor="middle" x="488" y="-419.56" font-family="Noto Sans CJK SC" font-size="12.00">Min/Max/Reserve</text>
<text text-anchor="middle" x="488" y="-406.56" font-family="Noto Sans CJK SC" font-size="12.00">最小/最大/留存策略</text>
</g>
<!-- a1&#45;&gt;b5 -->
<g id="edge4" class="edge">
<title>a1&#45;&gt;b5</title>
<path fill="none" stroke="#64748b" d="M155.28,-282.28C188.18,-307.54 251.79,-353.06 313,-378.16 345.78,-391.61 384.08,-400.63 416.39,-406.49"/>
<polygon fill="#64748b" stroke="#64748b" points="416.2,-410.01 426.66,-408.29 417.41,-403.12 416.2,-410.01"/>
</g>
<!-- a2 -->
<g id="node2" class="node">
<title>a2</title>
<path fill="#f8fafc" stroke="#cbd5e1" d="M224,-130.16C224,-130.16 39,-130.16 39,-130.16 33,-130.16 27,-124.16 27,-118.16 27,-118.16 27,-106.16 27,-106.16 27,-100.16 33,-94.16 39,-94.16 39,-94.16 224,-94.16 224,-94.16 230,-94.16 236,-100.16 236,-106.16 236,-106.16 236,-118.16 236,-118.16 236,-124.16 230,-130.16 224,-130.16"/>
<text text-anchor="middle" x="131.5" y="-115.56" font-family="Noto Sans CJK SC" font-size="12.00">推广/分佣平台</text>
<text text-anchor="middle" x="131.5" y="-102.56" font-family="Noto Sans CJK SC" font-size="12.00">规则绑定对象、通用规则 + 特例规则</text>
</g>
<!-- a2&#45;&gt;b1 -->
<g id="edge6" class="edge">
<title>a2&#45;&gt;b1</title>
<path fill="none" stroke="#64748b" d="M236.47,-112.16C287.39,-112.16 348.11,-112.16 397.02,-112.16"/>
<polygon fill="#64748b" stroke="#64748b" points="397.27,-115.66 407.27,-112.16 397.27,-108.66 397.27,-115.66"/>
</g>
<!-- b2 -->
<g id="node6" class="node">
<title>b2</title>
<path fill="#f8fafc" stroke="#cbd5e1" d="M523,-54.16C523,-54.16 453,-54.16 453,-54.16 447,-54.16 441,-48.16 441,-42.16 441,-42.16 441,-30.16 441,-30.16 441,-24.16 447,-18.16 453,-18.16 453,-18.16 523,-18.16 523,-18.16 529,-18.16 535,-24.16 535,-30.16 535,-30.16 535,-42.16 535,-42.16 535,-48.16 529,-54.16 523,-54.16"/>
<text text-anchor="middle" x="488" y="-39.56" font-family="Noto Sans CJK SC" font-size="12.00">PolicyBinding</text>
<text text-anchor="middle" x="488" y="-26.56" font-family="Noto Sans CJK SC" font-size="12.00">策略绑定模型</text>
</g>
<!-- a2&#45;&gt;b2 -->
<g id="edge5" class="edge">
<title>a2&#45;&gt;b2</title>
<path fill="none" stroke="#64748b" d="M216.51,-94.15C282.76,-79.95 373.31,-60.54 430.98,-48.17"/>
<polygon fill="#64748b" stroke="#64748b" points="431.95,-51.54 441,-46.02 430.49,-44.7 431.95,-51.54"/>
</g>
<!-- a3 -->
<g id="node3" class="node">
<title>a3</title>
<path fill="#f8fafc" stroke="#cbd5e1" d="M212,-206.16C212,-206.16 51,-206.16 51,-206.16 45,-206.16 39,-200.16 39,-194.16 39,-194.16 39,-182.16 39,-182.16 39,-176.16 45,-170.16 51,-170.16 51,-170.16 212,-170.16 212,-170.16 218,-170.16 224,-176.16 224,-182.16 224,-182.16 224,-194.16 224,-194.16 224,-200.16 218,-206.16 212,-206.16"/>
<text text-anchor="middle" x="131.5" y="-191.56" font-family="Noto Sans CJK SC" font-size="12.00">积分/电商结算</text>
<text text-anchor="middle" x="131.5" y="-178.56" font-family="Noto Sans CJK SC" font-size="12.00">订单清分、结算账单、对账意识</text>
</g>
<!-- a3&#45;&gt;b1 -->
<g id="edge8" class="edge">
<title>a3&#45;&gt;b1</title>
<path fill="none" stroke="#64748b" d="M216.51,-170.15C270.98,-158.47 341.87,-143.28 397.41,-131.37"/>
<polygon fill="#64748b" stroke="#64748b" points="398.2,-134.78 407.24,-129.26 396.73,-127.93 398.2,-134.78"/>
</g>
<!-- b6 -->
<g id="node10" class="node">
<title>b6</title>
<path fill="#f8fafc" stroke="#cbd5e1" d="M526.5,-206.16C526.5,-206.16 449.5,-206.16 449.5,-206.16 443.5,-206.16 437.5,-200.16 437.5,-194.16 437.5,-194.16 437.5,-182.16 437.5,-182.16 437.5,-176.16 443.5,-170.16 449.5,-170.16 449.5,-170.16 526.5,-170.16 526.5,-170.16 532.5,-170.16 538.5,-176.16 538.5,-182.16 538.5,-182.16 538.5,-194.16 538.5,-194.16 538.5,-200.16 532.5,-206.16 526.5,-206.16"/>
<text text-anchor="middle" x="488" y="-191.56" font-family="Noto Sans CJK SC" font-size="12.00">Data Lineage</text>
<text text-anchor="middle" x="488" y="-178.56" font-family="Noto Sans CJK SC" font-size="12.00">账单与对账埋点</text>
</g>
<!-- a3&#45;&gt;b6 -->
<g id="edge7" class="edge">
<title>a3&#45;&gt;b6</title>
<path fill="none" stroke="#64748b" d="M224.25,-188.16C288.28,-188.16 371.87,-188.16 427.39,-188.16"/>
<polygon fill="#64748b" stroke="#64748b" points="427.42,-191.66 437.42,-188.16 427.42,-184.66 427.42,-191.66"/>
</g>
<!-- a4 -->
<g id="node4" class="node">
<title>a4</title>
<path fill="#f8fafc" stroke="#cbd5e1" d="M188,-54.16C188,-54.16 75,-54.16 75,-54.16 69,-54.16 63,-48.16 63,-42.16 63,-42.16 63,-30.16 63,-30.16 63,-24.16 69,-18.16 75,-18.16 75,-18.16 188,-18.16 188,-18.16 194,-18.16 200,-24.16 200,-30.16 200,-30.16 200,-42.16 200,-42.16 200,-48.16 194,-54.16 188,-54.16"/>
<text text-anchor="middle" x="131.5" y="-39.56" font-family="Noto Sans CJK SC" font-size="12.00">传统行业税票/付款</text>
<text text-anchor="middle" x="131.5" y="-26.56" font-family="Noto Sans CJK SC" font-size="12.00">发票、付款单、收款单</text>
</g>
<!-- c3 -->
<g id="node13" class="node">
<title>c3</title>
<path fill="#f8fafc" stroke="#cbd5e1" d="M926,-48.16C926,-48.16 765,-48.16 765,-48.16 759,-48.16 753,-42.16 753,-36.16 753,-36.16 753,-24.16 753,-24.16 753,-18.16 759,-12.16 765,-12.16 765,-12.16 926,-12.16 926,-12.16 932,-12.16 938,-18.16 938,-24.16 938,-24.16 938,-36.16 938,-36.16 938,-42.16 932,-48.16 926,-48.16"/>
<text text-anchor="middle" x="845.5" y="-33.56" font-family="Noto Sans CJK SC" font-size="12.00">不进入 P0</text>
<text text-anchor="middle" x="845.5" y="-20.56" font-family="Noto Sans CJK SC" font-size="12.00">发票、收款、付款、税务、出款</text>
</g>
<!-- a4&#45;&gt;c3 -->
<g id="edge9" class="edge">
<title>a4&#45;&gt;c3</title>
<path fill="none" stroke="#64748b" d="M200.35,-23.11C234.08,-17.26 275.53,-11.05 313,-8.16 468.1,3.8 507.73,1.21 663,-8.16 688.87,-9.72 716.71,-12.53 742.62,-15.62"/>
<polygon fill="#64748b" stroke="#64748b" points="742.48,-19.13 752.83,-16.87 743.33,-12.18 742.48,-19.13"/>
</g>
<!-- c1 -->
<g id="node11" class="node">
<title>c1</title>
<path fill="#f8fafc" stroke="#cbd5e1" d="M920,-135.66C920,-135.66 771,-135.66 771,-135.66 765,-135.66 759,-129.66 759,-123.66 759,-123.66 759,-100.66 759,-100.66 759,-94.66 765,-88.66 771,-88.66 771,-88.66 920,-88.66 920,-88.66 926,-88.66 932,-94.66 932,-100.66 932,-100.66 932,-123.66 932,-123.66 932,-129.66 926,-135.66 920,-135.66"/>
<text text-anchor="middle" x="845.5" y="-122.06" font-family="Noto Sans CJK SC" font-size="12.00">P0 实现</text>
<text text-anchor="middle" x="845.5" y="-109.06" font-family="Noto Sans CJK SC" font-size="12.00">内部账户入账 + 后台手动结算</text>
<text text-anchor="middle" x="845.5" y="-96.06" font-family="Noto Sans CJK SC" font-size="12.00">核销后 D+N</text>
</g>
<!-- b1&#45;&gt;c1 -->
<g id="edge10" class="edge">
<title>b1&#45;&gt;c1</title>
<path fill="none" stroke="#64748b" d="M568.78,-112.16C621.97,-112.16 692.18,-112.16 748.44,-112.16"/>
<polygon fill="#64748b" stroke="#64748b" points="748.78,-115.66 758.78,-112.16 748.78,-108.66 748.78,-115.66"/>
</g>
<!-- b2&#45;&gt;c1 -->
<g id="edge11" class="edge">
<title>b2&#45;&gt;c1</title>
<path fill="none" stroke="#64748b" d="M535.11,-46.02C589.01,-57.54 679.65,-76.92 748.93,-91.73"/>
<polygon fill="#64748b" stroke="#64748b" points="748.48,-95.21 758.99,-93.88 749.94,-88.37 748.48,-95.21"/>
</g>
<!-- b3&#45;&gt;c1 -->
<g id="edge12" class="edge">
<title>b3&#45;&gt;c1</title>
<path fill="none" stroke="#64748b" d="M630.59,-322.13C642.3,-316.92 653.34,-310.37 663,-302.16 716.23,-256.98 670.75,-204.64 721,-156.16 729.3,-148.16 739.15,-141.6 749.61,-136.22"/>
<polygon fill="#64748b" stroke="#64748b" points="751.4,-139.25 758.94,-131.8 748.41,-132.92 751.4,-139.25"/>
</g>
<!-- b4&#45;&gt;c1 -->
<g id="edge13" class="edge">
<title>b4&#45;&gt;c1</title>
<path fill="none" stroke="#64748b" d="M618.22,-246.16C633.93,-241.06 649.27,-234.52 663,-226.16 697.51,-205.15 687.9,-179.33 721,-156.16 729.85,-149.97 739.67,-144.56 749.79,-139.85"/>
<polygon fill="#64748b" stroke="#64748b" points="751.4,-142.97 759.14,-135.73 748.58,-136.56 751.4,-142.97"/>
</g>
<!-- c2 -->
<g id="node12" class="node">
<title>c2</title>
<path fill="#f8fafc" stroke="#cbd5e1" d="M958,-212.16C958,-212.16 733,-212.16 733,-212.16 727,-212.16 721,-206.16 721,-200.16 721,-200.16 721,-188.16 721,-188.16 721,-182.16 727,-176.16 733,-176.16 733,-176.16 958,-176.16 958,-176.16 964,-176.16 970,-182.16 970,-188.16 970,-188.16 970,-200.16 970,-200.16 970,-206.16 964,-212.16 958,-212.16"/>
<text text-anchor="middle" x="845.5" y="-197.56" font-family="Noto Sans CJK SC" font-size="12.00">P1/P2 预留</text>
<text text-anchor="middle" x="845.5" y="-184.56" font-family="Noto Sans CJK SC" font-size="12.00">自动/自助结算、直接打款、留存、对账中心</text>
</g>
<!-- b5&#45;&gt;c2 -->
<g id="edge14" class="edge">
<title>b5&#45;&gt;c2</title>
<path fill="none" stroke="#64748b" d="M549.19,-411.6C584.16,-406.91 628.07,-397.41 663,-378.16 735.13,-338.42 797.12,-261.09 826.44,-220.49"/>
<polygon fill="#64748b" stroke="#64748b" points="829.41,-222.36 832.36,-212.18 823.71,-218.3 829.41,-222.36"/>
</g>
<!-- b6&#45;&gt;c2 -->
<g id="edge15" class="edge">
<title>b6&#45;&gt;c2</title>
<path fill="none" stroke="#64748b" d="M538.81,-189C583.24,-189.75 650.38,-190.89 710.42,-191.9"/>
<polygon fill="#64748b" stroke="#64748b" points="710.71,-195.4 720.77,-192.07 710.83,-188.4 710.71,-195.4"/>
</g>
</g>
</svg>
