<?xml version="1.0" encoding="UTF-8" standalone="no"?>
<!DOCTYPE svg PUBLIC "-//W3C//DTD SVG 1.1//EN"
 "http://www.w3.org/Graphics/SVG/1.1/DTD/svg11.dtd">
<!-- Generated by graphviz version 2.42.4 (0)
 -->
<!-- Title: G Pages: 1 -->
<svg width="630pt" height="508pt"
 viewBox="14.40 14.40 615.40 493.40" xmlns="http://www.w3.org/2000/svg" xmlns:xlink="http://www.w3.org/1999/xlink">
<g id="graph0" class="graph" transform="scale(1 1) rotate(0) translate(18.4 489.4)">
<title>G</title>
<polygon fill="white" stroke="transparent" points="-4,4 -4,-475 597,-475 597,4 -4,4"/>
<!-- p -->
<g id="node1" class="node">
<title>p</title>
<path fill="#f8fafc" stroke="#cbd5e1" d="M278,-365C278,-365 135,-365 135,-365 129,-365 123,-359 123,-353 123,-353 123,-330 123,-330 123,-324 129,-318 135,-318 135,-318 278,-318 278,-318 284,-318 290,-324 290,-330 290,-330 290,-353 290,-353 290,-359 284,-365 278,-365"/>
<text text-anchor="middle" x="206.5" y="-351.4" font-family="Noto Sans CJK SC" font-size="12.00">ClearingSettlementPolicy</text>
<text text-anchor="middle" x="206.5" y="-338.4" font-family="Noto Sans CJK SC" font-size="12.00">策略主表</text>
<text text-anchor="middle" x="206.5" y="-325.4" font-family="Noto Sans CJK SC" font-size="12.00">policy_no / scope / priority</text>
</g>
<!-- v -->
<g id="node2" class="node">
<title>v</title>
<path fill="#f8fafc" stroke="#cbd5e1" d="M275,-259C275,-259 138,-259 138,-259 132,-259 126,-253 126,-247 126,-247 126,-224 126,-224 126,-218 132,-212 138,-212 138,-212 275,-212 275,-212 281,-212 287,-218 287,-224 287,-224 287,-247 287,-247 287,-253 281,-259 275,-259"/>
<text text-anchor="middle" x="206.5" y="-245.4" font-family="Noto Sans CJK SC" font-size="12.00">PolicyVersion</text>
<text text-anchor="middle" x="206.5" y="-232.4" font-family="Noto Sans CJK SC" font-size="12.00">账期、结算模式、发起方式</text>
<text text-anchor="middle" x="206.5" y="-219.4" font-family="Noto Sans CJK SC" font-size="12.00">最小/最大金额、留存策略</text>
</g>
<!-- p&#45;&gt;v -->
<g id="edge1" class="edge">
<title>p&#45;&gt;v</title>
<path fill="none" stroke="#475569" d="M206.5,-317.93C206.5,-303.76 206.5,-285.24 206.5,-269.44"/>
<polygon fill="#475569" stroke="#475569" points="210,-269.02 206.5,-259.02 203,-269.02 210,-269.02"/>
<text text-anchor="middle" x="225.5" y="-286" font-family="Noto Sans CJK SC" font-size="10.00">1:N 版本</text>
</g>
<!-- r -->
<g id="node3" class="node">
<title>r</title>
<path fill="#f8fafc" stroke="#cbd5e1" d="M183.5,-153C183.5,-153 63.5,-153 63.5,-153 57.5,-153 51.5,-147 51.5,-141 51.5,-141 51.5,-118 51.5,-118 51.5,-112 57.5,-106 63.5,-106 63.5,-106 183.5,-106 183.5,-106 189.5,-106 195.5,-112 195.5,-118 195.5,-118 195.5,-141 195.5,-141 195.5,-147 189.5,-153 183.5,-153"/>
<text text-anchor="middle" x="123.5" y="-139.4" font-family="Noto Sans CJK SC" font-size="12.00">PolicyRule</text>
<text text-anchor="middle" x="123.5" y="-126.4" font-family="Noto Sans CJK SC" font-size="12.00">规则类型</text>
<text text-anchor="middle" x="123.5" y="-113.4" font-family="Noto Sans CJK SC" font-size="12.00">账期 / 分配 / 成本 / 分佣</text>
</g>
<!-- v&#45;&gt;r -->
<g id="edge2" class="edge">
<title>v&#45;&gt;r</title>
<path fill="none" stroke="#475569" d="M188.49,-211.93C176.63,-197.08 160.97,-177.45 147.98,-161.18"/>
<polygon fill="#475569" stroke="#475569" points="150.45,-158.66 141.47,-153.02 144.98,-163.02 150.45,-158.66"/>
<text text-anchor="middle" x="186.5" y="-180" font-family="Noto Sans CJK SC" font-size="10.00">1:N 规则</text>
</g>
<!-- s -->
<g id="node6" class="node">
<title>s</title>
<path fill="#f8fafc" stroke="#cbd5e1" d="M413,-153C413,-153 312,-153 312,-153 306,-153 300,-147 300,-141 300,-141 300,-118 300,-118 300,-112 306,-106 312,-106 312,-106 413,-106 413,-106 419,-106 425,-112 425,-118 425,-118 425,-141 425,-141 425,-147 419,-153 413,-153"/>
<text text-anchor="middle" x="362.5" y="-139.4" font-family="Noto Sans CJK SC" font-size="12.00">PolicySnapshot</text>
<text text-anchor="middle" x="362.5" y="-126.4" font-family="Noto Sans CJK SC" font-size="12.00">清分和结算时落快照</text>
<text text-anchor="middle" x="362.5" y="-113.4" font-family="Noto Sans CJK SC" font-size="12.00">历史可追溯</text>
</g>
<!-- v&#45;&gt;s -->
<g id="edge5" class="edge">
<title>v&#45;&gt;s</title>
<path fill="none" stroke="#475569" d="M240.35,-211.93C263.76,-196.33 295.07,-175.45 320.14,-158.74"/>
<polygon fill="#475569" stroke="#475569" points="322.34,-161.48 328.72,-153.02 318.45,-155.66 322.34,-161.48"/>
<text text-anchor="middle" x="324" y="-180" font-family="Noto Sans CJK SC" font-size="10.00">发布后形成快照</text>
</g>
<!-- pr -->
<g id="node4" class="node">
<title>pr</title>
<path fill="#f8fafc" stroke="#cbd5e1" d="M161,-47C161,-47 12,-47 12,-47 6,-47 0,-41 0,-35 0,-35 0,-12 0,-12 0,-6 6,0 12,0 12,0 161,0 161,0 167,0 173,-6 173,-12 173,-12 173,-35 173,-35 173,-41 167,-47 161,-47"/>
<text text-anchor="middle" x="86.5" y="-33.4" font-family="Noto Sans CJK SC" font-size="12.00">PolicyRuleParticipant</text>
<text text-anchor="middle" x="86.5" y="-20.4" font-family="Noto Sans CJK SC" font-size="12.00">参与方规则</text>
<text text-anchor="middle" x="86.5" y="-7.4" font-family="Noto Sans CJK SC" font-size="12.00">角色、比例、固定金额、方向</text>
</g>
<!-- r&#45;&gt;pr -->
<g id="edge3" class="edge">
<title>r&#45;&gt;pr</title>
<path fill="none" stroke="#475569" d="M115.47,-105.93C110.33,-91.49 103.58,-72.52 97.9,-56.53"/>
<polygon fill="#475569" stroke="#475569" points="101.16,-55.27 94.51,-47.02 94.57,-57.62 101.16,-55.27"/>
<text text-anchor="middle" x="130.5" y="-74" font-family="Noto Sans CJK SC" font-size="10.00">1:N 参与方</text>
</g>
<!-- b -->
<g id="node5" class="node">
<title>b</title>
<path fill="#f8fafc" stroke="#cbd5e1" d="M300.5,-471C300.5,-471 112.5,-471 112.5,-471 106.5,-471 100.5,-465 100.5,-459 100.5,-459 100.5,-436 100.5,-436 100.5,-430 106.5,-424 112.5,-424 112.5,-424 300.5,-424 300.5,-424 306.5,-424 312.5,-430 312.5,-436 312.5,-436 312.5,-459 312.5,-459 312.5,-465 306.5,-471 300.5,-471"/>
<text text-anchor="middle" x="206.5" y="-457.4" font-family="Noto Sans CJK SC" font-size="12.00">PolicyBinding</text>
<text text-anchor="middle" x="206.5" y="-444.4" font-family="Noto Sans CJK SC" font-size="12.00">绑定对象</text>
<text text-anchor="middle" x="206.5" y="-431.4" font-family="Noto Sans CJK SC" font-size="12.00">GLOBAL / 业务线 / 类目 / 商户 / 活动</text>
</g>
<!-- b&#45;&gt;p -->
<g id="edge4" class="edge">
<title>b&#45;&gt;p</title>
<path fill="none" stroke="#475569" d="M206.5,-423.93C206.5,-409.76 206.5,-391.24 206.5,-375.44"/>
<polygon fill="#475569" stroke="#475569" points="210,-375.02 206.5,-365.02 203,-375.02 210,-375.02"/>
<text text-anchor="middle" x="226.5" y="-392" font-family="Noto Sans CJK SC" font-size="10.00">引用策略</text>
</g>
<!-- cr -->
<g id="node7" class="node">
<title>cr</title>
<path fill="#f8fafc" stroke="#cbd5e1" d="M291.5,-41.5C291.5,-41.5 217.5,-41.5 217.5,-41.5 211.5,-41.5 205.5,-35.5 205.5,-29.5 205.5,-29.5 205.5,-17.5 205.5,-17.5 205.5,-11.5 211.5,-5.5 217.5,-5.5 217.5,-5.5 291.5,-5.5 291.5,-5.5 297.5,-5.5 303.5,-11.5 303.5,-17.5 303.5,-17.5 303.5,-29.5 303.5,-29.5 303.5,-35.5 297.5,-41.5 291.5,-41.5"/>
<text text-anchor="middle" x="254.5" y="-26.9" font-family="Noto Sans CJK SC" font-size="12.00">ClearingResult</text>
<text text-anchor="middle" x="254.5" y="-13.9" font-family="Noto Sans CJK SC" font-size="12.00">清分结果</text>
</g>
<!-- s&#45;&gt;cr -->
<g id="edge6" class="edge">
<title>s&#45;&gt;cr</title>
<path fill="none" stroke="#475569" d="M339.07,-105.93C321.48,-89 297.44,-65.85 279.49,-48.56"/>
<polygon fill="#475569" stroke="#475569" points="281.83,-45.96 272.2,-41.55 276.98,-51 281.83,-45.96"/>
<text text-anchor="middle" x="332.5" y="-74" font-family="Noto Sans CJK SC" font-size="10.00">清分命中</text>
</g>
<!-- pos -->
<g id="node8" class="node">
<title>pos</title>
<path fill="#f8fafc" stroke="#cbd5e1" d="M449.5,-41.5C449.5,-41.5 347.5,-41.5 347.5,-41.5 341.5,-41.5 335.5,-35.5 335.5,-29.5 335.5,-29.5 335.5,-17.5 335.5,-17.5 335.5,-11.5 341.5,-5.5 347.5,-5.5 347.5,-5.5 449.5,-5.5 449.5,-5.5 455.5,-5.5 461.5,-11.5 461.5,-17.5 461.5,-17.5 461.5,-29.5 461.5,-29.5 461.5,-35.5 455.5,-41.5 449.5,-41.5"/>
<text text-anchor="middle" x="398.5" y="-26.9" font-family="Noto Sans CJK SC" font-size="12.00">SettlementPosition</text>
<text text-anchor="middle" x="398.5" y="-13.9" font-family="Noto Sans CJK SC" font-size="12.00">结算头寸</text>
</g>
<!-- s&#45;&gt;pos -->
<g id="edge7" class="edge">
<title>s&#45;&gt;pos</title>
<path fill="none" stroke="#475569" d="M370.31,-105.93C375.86,-89.9 383.33,-68.31 389.19,-51.39"/>
<polygon fill="#475569" stroke="#475569" points="392.64,-52.14 392.6,-41.55 386.02,-49.85 392.64,-52.14"/>
<text text-anchor="middle" x="422" y="-74" font-family="Noto Sans CJK SC" font-size="10.00">头寸继承策略口径</text>
</g>
<!-- bill -->
<g id="node9" class="node">
<title>bill</title>
<path fill="#f8fafc" stroke="#cbd5e1" d="M581,-41.5C581,-41.5 506,-41.5 506,-41.5 500,-41.5 494,-35.5 494,-29.5 494,-29.5 494,-17.5 494,-17.5 494,-11.5 500,-5.5 506,-5.5 506,-5.5 581,-5.5 581,-5.5 587,-5.5 593,-11.5 593,-17.5 593,-17.5 593,-29.5 593,-29.5 593,-35.5 587,-41.5 581,-41.5"/>
<text text-anchor="middle" x="543.5" y="-26.9" font-family="Noto Sans CJK SC" font-size="12.00">SettlementBill</text>
<text text-anchor="middle" x="543.5" y="-13.9" font-family="Noto Sans CJK SC" font-size="12.00">结算单</text>
</g>
<!-- s&#45;&gt;bill -->
<g id="edge8" class="edge">
<title>s&#45;&gt;bill</title>
<path fill="none" stroke="#475569" d="M421.57,-105.97C437.53,-99.05 454.52,-90.88 469.5,-82 485.96,-72.24 502.91,-59.32 516.43,-48.19"/>
<polygon fill="#475569" stroke="#475569" points="518.95,-50.65 524.37,-41.54 514.45,-45.28 518.95,-50.65"/>
<text text-anchor="middle" x="519" y="-74" font-family="Noto Sans CJK SC" font-size="10.00">结算单固化策略</text>
</g>
</g>
</svg>
