<?xml version="1.0" encoding="UTF-8" standalone="no"?>
<!DOCTYPE svg PUBLIC "-//W3C//DTD SVG 1.1//EN"
 "http://www.w3.org/Graphics/SVG/1.1/DTD/svg11.dtd">
<!-- Generated by graphviz version 2.42.4 (0)
 -->
<!-- Title: G Pages: 1 -->
<svg width="598pt" height="250pt"
 viewBox="14.40 14.40 583.40 235.40" xmlns="http://www.w3.org/2000/svg" xmlns:xlink="http://www.w3.org/1999/xlink">
<g id="graph0" class="graph" transform="scale(1 1) rotate(0) translate(18.4 231.4)">
<title>G</title>
<polygon fill="white" stroke="transparent" points="-4,4 -4,-217 565,-217 565,4 -4,4"/>
<!-- source -->
<g id="node1" class="node">
<title>source</title>
<path fill="#f8fafc" stroke="#cbd5e1" d="M126,-124.5C126,-124.5 12,-124.5 12,-124.5 6,-124.5 0,-118.5 0,-112.5 0,-112.5 0,-100.5 0,-100.5 0,-94.5 6,-88.5 12,-88.5 12,-88.5 126,-88.5 126,-88.5 132,-88.5 138,-94.5 138,-100.5 138,-100.5 138,-112.5 138,-112.5 138,-118.5 132,-124.5 126,-124.5"/>
<text text-anchor="middle" x="69" y="-103.4" font-family="Noto Sans CJK SC" font-size="12.00">结算单 SettlementBill</text>
</g>
<!-- m1 -->
<g id="node2" class="node">
<title>m1</title>
<path fill="#f8fafc" stroke="#cbd5e1" d="M326,-213C326,-213 201,-213 201,-213 195,-213 189,-207 189,-201 189,-201 189,-178 189,-178 189,-172 195,-166 201,-166 201,-166 326,-166 326,-166 332,-166 338,-172 338,-178 338,-178 338,-201 338,-201 338,-207 332,-213 326,-213"/>
<text text-anchor="middle" x="263.5" y="-199.4" font-family="Noto Sans CJK SC" font-size="12.00">INTERNAL_ACCOUNT</text>
<text text-anchor="middle" x="263.5" y="-186.4" font-family="Noto Sans CJK SC" font-size="12.00">入账到平台内部商户账户</text>
<text text-anchor="middle" x="263.5" y="-173.4" font-family="Noto Sans CJK SC" font-size="12.00">P0 实现</text>
</g>
<!-- source&#45;&gt;m1 -->
<g id="edge1" class="edge">
<title>source&#45;&gt;m1</title>
<path fill="none" stroke="#475569" d="M111.77,-124.51C137,-135.39 169.69,-149.48 198.17,-161.76"/>
<polygon fill="#475569" stroke="#475569" points="197.08,-165.1 207.65,-165.85 199.85,-158.68 197.08,-165.1"/>
</g>
<!-- m2 -->
<g id="node3" class="node">
<title>m2</title>
<path fill="#f8fafc" stroke="#cbd5e1" d="M314,-130C314,-130 213,-130 213,-130 207,-130 201,-124 201,-118 201,-118 201,-95 201,-95 201,-89 207,-83 213,-83 213,-83 314,-83 314,-83 320,-83 326,-89 326,-95 326,-95 326,-118 326,-118 326,-124 320,-130 314,-130"/>
<text text-anchor="middle" x="263.5" y="-116.4" font-family="Noto Sans CJK SC" font-size="12.00">DIRECT_BANK</text>
<text text-anchor="middle" x="263.5" y="-103.4" font-family="Noto Sans CJK SC" font-size="12.00">直接打款到银行账户</text>
<text text-anchor="middle" x="263.5" y="-90.4" font-family="Noto Sans CJK SC" font-size="12.00">P1/P2 出款适配</text>
</g>
<!-- source&#45;&gt;m2 -->
<g id="edge2" class="edge">
<title>source&#45;&gt;m2</title>
<path fill="none" stroke="#475569" d="M138.14,-106.5C155.23,-106.5 173.61,-106.5 190.86,-106.5"/>
<polygon fill="#475569" stroke="#475569" points="190.87,-110 200.87,-106.5 190.87,-103 190.87,-110"/>
</g>
<!-- m3 -->
<g id="node4" class="node">
<title>m3</title>
<path fill="#f8fafc" stroke="#cbd5e1" d="M322,-47C322,-47 205,-47 205,-47 199,-47 193,-41 193,-35 193,-35 193,-12 193,-12 193,-6 199,0 205,0 205,0 322,0 322,0 328,0 334,-6 334,-12 334,-12 334,-35 334,-35 334,-41 328,-47 322,-47"/>
<text text-anchor="middle" x="263.5" y="-33.4" font-family="Noto Sans CJK SC" font-size="12.00">EXTERNAL_PAYOUT</text>
<text text-anchor="middle" x="263.5" y="-20.4" font-family="Noto Sans CJK SC" font-size="12.00">调用外部代付/出款通道</text>
<text text-anchor="middle" x="263.5" y="-7.4" font-family="Noto Sans CJK SC" font-size="12.00">P1/P2 出款适配</text>
</g>
<!-- source&#45;&gt;m3 -->
<g id="edge3" class="edge">
<title>source&#45;&gt;m3</title>
<path fill="none" stroke="#475569" d="M111.77,-88.49C137,-77.61 169.69,-63.52 198.17,-51.24"/>
<polygon fill="#475569" stroke="#475569" points="199.85,-54.32 207.65,-47.15 197.08,-47.9 199.85,-54.32"/>
</g>
<!-- acc -->
<g id="node5" class="node">
<title>acc</title>
<path fill="#f8fafc" stroke="#cbd5e1" d="M549,-207.5C549,-207.5 472,-207.5 472,-207.5 466,-207.5 460,-201.5 460,-195.5 460,-195.5 460,-183.5 460,-183.5 460,-177.5 466,-171.5 472,-171.5 472,-171.5 549,-171.5 549,-171.5 555,-171.5 561,-177.5 561,-183.5 561,-183.5 561,-195.5 561,-195.5 561,-201.5 555,-207.5 549,-207.5"/>
<text text-anchor="middle" x="510.5" y="-192.9" font-family="Noto Sans CJK SC" font-size="12.00">账户账务平台</text>
<text text-anchor="middle" x="510.5" y="-179.9" font-family="Noto Sans CJK SC" font-size="12.00">记录余额与流水</text>
</g>
<!-- m1&#45;&gt;acc -->
<g id="edge4" class="edge">
<title>m1&#45;&gt;acc</title>
<path fill="none" stroke="#475569" d="M338.01,-189.5C373.65,-189.5 415.91,-189.5 449.56,-189.5"/>
<polygon fill="#475569" stroke="#475569" points="449.71,-193 459.71,-189.5 449.71,-186 449.71,-193"/>
<text text-anchor="middle" x="399" y="-192.5" font-family="Noto Sans CJK SC" font-size="10.00">postSettlement</text>
</g>
<!-- payout -->
<g id="node6" class="node">
<title>payout</title>
<path fill="#f8fafc" stroke="#cbd5e1" d="M545,-79.5C545,-79.5 476,-79.5 476,-79.5 470,-79.5 464,-73.5 464,-67.5 464,-67.5 464,-55.5 464,-55.5 464,-49.5 470,-43.5 476,-43.5 476,-43.5 545,-43.5 545,-43.5 551,-43.5 557,-49.5 557,-55.5 557,-55.5 557,-67.5 557,-67.5 557,-73.5 551,-79.5 545,-79.5"/>
<text text-anchor="middle" x="510.5" y="-64.9" font-family="Noto Sans CJK SC" font-size="12.00">出款/提现平台</text>
<text text-anchor="middle" x="510.5" y="-51.9" font-family="Noto Sans CJK SC" font-size="12.00">非 P0</text>
</g>
<!-- m2&#45;&gt;payout -->
<g id="edge5" class="edge">
<title>m2&#45;&gt;payout</title>
<path fill="none" stroke="#475569" d="M326.01,-95.2C365.3,-87.99 415.84,-78.7 453.93,-71.71"/>
<polygon fill="#475569" stroke="#475569" points="454.62,-75.14 463.82,-69.89 453.35,-68.25 454.62,-75.14"/>
<text text-anchor="middle" x="399" y="-90.5" font-family="Noto Sans CJK SC" font-size="10.00">future payout</text>
</g>
<!-- m3&#45;&gt;payout -->
<g id="edge6" class="edge">
<title>m3&#45;&gt;payout</title>
<path fill="none" stroke="#475569" d="M334.34,-24.24C365.42,-25.64 402.3,-28.77 435,-35.5 441.25,-36.79 447.7,-38.47 454.05,-40.35"/>
<polygon fill="#475569" stroke="#475569" points="453.35,-43.8 463.94,-43.46 455.45,-37.12 453.35,-43.8"/>
<text text-anchor="middle" x="399" y="-38.5" font-family="Noto Sans CJK SC" font-size="10.00">future payout</text>
</g>
</g>
</svg>
