<?xml version="1.0" encoding="UTF-8" standalone="no"?>
<!DOCTYPE svg PUBLIC "-//W3C//DTD SVG 1.1//EN"
 "http://www.w3.org/Graphics/SVG/1.1/DTD/svg11.dtd">
<!-- Generated by graphviz version 2.42.4 (0)
 -->
<!-- Title: G Pages: 1 -->
<svg width="704pt" height="98pt"
 viewBox="0.00 0.00 704.00 98.00" xmlns="http://www.w3.org/2000/svg" xmlns:xlink="http://www.w3.org/1999/xlink">
<g id="graph0" class="graph" transform="scale(1 1) rotate(0) translate(4 94)">
<title>G</title>
<polygon fill="white" stroke="transparent" points="-4,4 -4,-94 700,-94 700,4 -4,4"/>
<!-- A -->
<g id="node1" class="node">
<title>A</title>
<path fill="none" stroke="black" d="M53,-62C53,-62 12,-62 12,-62 6,-62 0,-56 0,-50 0,-50 0,-38 0,-38 0,-32 6,-26 12,-26 12,-26 53,-26 53,-26 59,-26 65,-32 65,-38 65,-38 65,-50 65,-50 65,-56 59,-62 53,-62"/>
<text text-anchor="middle" x="32.5" y="-47.4" font-family="Noto Sans CJK SC" font-size="12.00">定时触发</text>
<text text-anchor="middle" x="32.5" y="-34.4" font-family="Noto Sans CJK SC" font-size="12.00">每5分钟</text>
</g>
<!-- B -->
<g id="node2" class="node">
<title>B</title>
<path fill="none" stroke="black" d="M224,-67.5C224,-67.5 114,-67.5 114,-67.5 108,-67.5 102,-61.5 102,-55.5 102,-55.5 102,-32.5 102,-32.5 102,-26.5 108,-20.5 114,-20.5 114,-20.5 224,-20.5 224,-20.5 230,-20.5 236,-26.5 236,-32.5 236,-32.5 236,-55.5 236,-55.5 236,-61.5 230,-67.5 224,-67.5"/>
<text text-anchor="middle" x="169" y="-53.9" font-family="Noto Sans CJK SC" font-size="12.00">扫描 IN_TRANSIT</text>
<text text-anchor="middle" x="169" y="-40.9" font-family="Noto Sans CJK SC" font-size="12.00">eligible_time &lt;= now</text>
<text text-anchor="middle" x="169" y="-27.9" font-family="Noto Sans CJK SC" font-size="12.00">limit 200</text>
</g>
<!-- A&#45;&gt;B -->
<g id="edge1" class="edge">
<title>A&#45;&gt;B</title>
<path fill="none" stroke="black" d="M65.03,-44C73.19,-44 82.33,-44 91.71,-44"/>
<polygon fill="black" stroke="black" points="91.95,-47.5 101.95,-44 91.95,-40.5 91.95,-47.5"/>
</g>
<!-- C -->
<g id="node3" class="node">
<title>C</title>
<path fill="none" stroke="black" d="M374,-62C374,-62 285,-62 285,-62 279,-62 273,-56 273,-50 273,-50 273,-38 273,-38 273,-32 279,-26 285,-26 285,-26 374,-26 374,-26 380,-26 386,-32 386,-38 386,-38 386,-50 386,-50 386,-56 380,-62 374,-62"/>
<text text-anchor="middle" x="329.5" y="-47.4" font-family="Noto Sans CJK SC" font-size="12.00">逐条校验</text>
<text text-anchor="middle" x="329.5" y="-34.4" font-family="Noto Sans CJK SC" font-size="12.00">仍为 IN_TRANSIT</text>
</g>
<!-- B&#45;&gt;C -->
<g id="edge2" class="edge">
<title>B&#45;&gt;C</title>
<path fill="none" stroke="black" d="M236.3,-44C244.96,-44 253.83,-44 262.48,-44"/>
<polygon fill="black" stroke="black" points="262.51,-47.5 272.51,-44 262.51,-40.5 262.51,-47.5"/>
</g>
<!-- D -->
<g id="node4" class="node">
<title>D</title>
<path fill="none" stroke="black" d="M549,-90C549,-90 478,-90 478,-90 472,-90 466,-84 466,-78 466,-78 466,-66 466,-66 466,-60 472,-54 478,-54 478,-54 549,-54 549,-54 555,-54 561,-60 561,-66 561,-66 561,-78 561,-78 561,-84 555,-90 549,-90"/>
<text text-anchor="middle" x="513.5" y="-75.4" font-family="Noto Sans CJK SC" font-size="12.00">推进 ELIGIBLE</text>
<text text-anchor="middle" x="513.5" y="-62.4" font-family="Noto Sans CJK SC" font-size="12.00">记录成熟尝试</text>
</g>
<!-- C&#45;&gt;D -->
<g id="edge3" class="edge">
<title>C&#45;&gt;D</title>
<path fill="none" stroke="black" d="M386.09,-52.55C408.21,-55.96 433.64,-59.87 455.86,-63.29"/>
<polygon fill="black" stroke="black" points="455.41,-66.76 465.82,-64.82 456.47,-59.84 455.41,-66.76"/>
<text text-anchor="middle" x="415.5" y="-61.2" font-family="Noto Sans CJK SC" font-size="11.00">满足</text>
</g>
<!-- E -->
<g id="node5" class="node">
<title>E</title>
<path fill="none" stroke="black" d="M570,-36C570,-36 457,-36 457,-36 451,-36 445,-30 445,-24 445,-24 445,-12 445,-12 445,-6 451,0 457,0 457,0 570,0 570,0 576,0 582,-6 582,-12 582,-12 582,-24 582,-24 582,-30 576,-36 570,-36"/>
<text text-anchor="middle" x="513.5" y="-21.4" font-family="Noto Sans CJK SC" font-size="12.00">失败保持 IN_TRANSIT</text>
<text text-anchor="middle" x="513.5" y="-8.4" font-family="Noto Sans CJK SC" font-size="12.00">下轮重试</text>
</g>
<!-- C&#45;&gt;E -->
<g id="edge4" class="edge">
<title>C&#45;&gt;E</title>
<path fill="none" stroke="black" d="M386.27,-35.59C392.26,-34.7 398.25,-33.83 404,-33 413.88,-31.58 424.27,-30.11 434.55,-28.67"/>
<polygon fill="black" stroke="black" points="435.35,-32.09 444.77,-27.25 434.38,-25.16 435.35,-32.09"/>
<text text-anchor="middle" x="415.5" y="-36.2" font-family="Noto Sans CJK SC" font-size="11.00">失败</text>
</g>
<!-- F -->
<g id="node6" class="node">
<title>F</title>
<path fill="none" stroke="black" d="M684,-62C684,-62 631,-62 631,-62 625,-62 619,-56 619,-50 619,-50 619,-38 619,-38 619,-32 625,-26 631,-26 631,-26 684,-26 684,-26 690,-26 696,-32 696,-38 696,-38 696,-50 696,-50 696,-56 690,-62 684,-62"/>
<text text-anchor="middle" x="657.5" y="-47.4" font-family="Noto Sans CJK SC" font-size="12.00">任务结束</text>
<text text-anchor="middle" x="657.5" y="-34.4" font-family="Noto Sans CJK SC" font-size="12.00">无容量规划</text>
</g>
<!-- D&#45;&gt;F -->
<g id="edge5" class="edge">
<title>D&#45;&gt;F</title>
<path fill="none" stroke="black" d="M561.39,-62.75C576.49,-59.78 593.23,-56.48 608.41,-53.48"/>
<polygon fill="black" stroke="black" points="609.5,-56.83 618.63,-51.47 608.15,-49.97 609.5,-56.83"/>
</g>
<!-- E&#45;&gt;F -->
<g id="edge6" class="edge">
<title>E&#45;&gt;F</title>
<path fill="none" stroke="black" d="M582.17,-30.39C591.11,-32.03 600.12,-33.68 608.63,-35.24"/>
<polygon fill="black" stroke="black" points="608.26,-38.73 618.73,-37.08 609.52,-31.84 608.26,-38.73"/>
</g>
</g>
</svg>
