<?xml version="1.0" encoding="UTF-8" standalone="no"?>
<!DOCTYPE svg PUBLIC "-//W3C//DTD SVG 1.1//EN"
 "http://www.w3.org/Graphics/SVG/1.1/DTD/svg11.dtd">
<!-- Generated by graphviz version 2.42.4 (0)
 -->
<!-- Title: G Pages: 1 -->
<svg width="848pt" height="183pt"
 viewBox="0.00 0.00 848.00 183.45" xmlns="http://www.w3.org/2000/svg" xmlns:xlink="http://www.w3.org/1999/xlink">
<g id="graph0" class="graph" transform="scale(1 1) rotate(0) translate(4 179.45)">
<title>G</title>
<polygon fill="white" stroke="transparent" points="-4,4 -4,-179.45 844,-179.45 844,4 -4,4"/>
<!-- A -->
<g id="node1" class="node">
<title>A</title>
<path fill="none" stroke="black" d="M145,-93.45C145,-93.45 12,-93.45 12,-93.45 6,-93.45 0,-87.45 0,-81.45 0,-81.45 0,-69.45 0,-69.45 0,-63.45 6,-57.45 12,-57.45 12,-57.45 145,-57.45 145,-57.45 151,-57.45 157,-63.45 157,-69.45 157,-69.45 157,-81.45 157,-81.45 157,-87.45 151,-93.45 145,-93.45"/>
<text text-anchor="middle" x="78.5" y="-72.35" font-family="Noto Sans CJK SC" font-size="12.00">PostingOrder UNKNOWN</text>
</g>
<!-- B -->
<g id="node2" class="node">
<title>B</title>
<path fill="none" stroke="black" d="M289,-93.45C289,-93.45 206,-93.45 206,-93.45 200,-93.45 194,-87.45 194,-81.45 194,-81.45 194,-69.45 194,-69.45 194,-63.45 200,-57.45 206,-57.45 206,-57.45 289,-57.45 289,-57.45 295,-57.45 301,-63.45 301,-69.45 301,-69.45 301,-81.45 301,-81.45 301,-87.45 295,-93.45 289,-93.45"/>
<text text-anchor="middle" x="247.5" y="-72.35" font-family="Noto Sans CJK SC" font-size="12.00">每2分钟查询账务</text>
</g>
<!-- A&#45;&gt;B -->
<g id="edge1" class="edge">
<title>A&#45;&gt;B</title>
<path fill="none" stroke="black" d="M157.13,-75.45C166.07,-75.45 175.1,-75.45 183.81,-75.45"/>
<polygon fill="black" stroke="black" points="183.85,-78.95 193.85,-75.45 183.85,-71.95 183.85,-78.95"/>
</g>
<!-- C -->
<g id="node3" class="node">
<title>C</title>
<path fill="none" stroke="black" d="M397,-175.45C397,-175.45 356,-175.45 356,-175.45 350,-175.45 344,-169.45 344,-163.45 344,-163.45 344,-151.45 344,-151.45 344,-145.45 350,-139.45 356,-139.45 356,-139.45 397,-139.45 397,-139.45 403,-139.45 409,-145.45 409,-151.45 409,-151.45 409,-163.45 409,-163.45 409,-169.45 403,-175.45 397,-175.45"/>
<text text-anchor="middle" x="376.5" y="-154.35" font-family="Noto Sans CJK SC" font-size="12.00">查询成功</text>
</g>
<!-- B&#45;&gt;C -->
<g id="edge2" class="edge">
<title>B&#45;&gt;C</title>
<path fill="none" stroke="black" d="M276.69,-93.65C295.02,-105.49 319.11,-121.04 338.92,-133.83"/>
<polygon fill="black" stroke="black" points="337.09,-136.82 347.39,-139.3 340.89,-130.94 337.09,-136.82"/>
</g>
<!-- D -->
<g id="node4" class="node">
<title>D</title>
<path fill="none" stroke="black" d="M397,-121.45C397,-121.45 356,-121.45 356,-121.45 350,-121.45 344,-115.45 344,-109.45 344,-109.45 344,-97.45 344,-97.45 344,-91.45 350,-85.45 356,-85.45 356,-85.45 397,-85.45 397,-85.45 403,-85.45 409,-91.45 409,-97.45 409,-97.45 409,-109.45 409,-109.45 409,-115.45 403,-121.45 397,-121.45"/>
<text text-anchor="middle" x="376.5" y="-100.35" font-family="Noto Sans CJK SC" font-size="12.00">查询失败</text>
</g>
<!-- B&#45;&gt;D -->
<g id="edge4" class="edge">
<title>B&#45;&gt;D</title>
<path fill="none" stroke="black" d="M301.26,-87.08C312.09,-89.47 323.36,-91.95 333.74,-94.24"/>
<polygon fill="black" stroke="black" points="333.26,-97.72 343.78,-96.46 334.77,-90.89 333.26,-97.72"/>
</g>
<!-- E -->
<g id="node5" class="node">
<title>E</title>
<path fill="none" stroke="black" d="M403,-67.45C403,-67.45 350,-67.45 350,-67.45 344,-67.45 338,-61.45 338,-55.45 338,-55.45 338,-43.45 338,-43.45 338,-37.45 344,-31.45 350,-31.45 350,-31.45 403,-31.45 403,-31.45 409,-31.45 415,-37.45 415,-43.45 415,-43.45 415,-55.45 415,-55.45 415,-61.45 409,-67.45 403,-67.45"/>
<text text-anchor="middle" x="376.5" y="-46.35" font-family="Noto Sans CJK SC" font-size="12.00">无确定结果</text>
</g>
<!-- B&#45;&gt;E -->
<g id="edge6" class="edge">
<title>B&#45;&gt;E</title>
<path fill="none" stroke="black" d="M301.26,-64.65C310.07,-62.84 319.17,-60.98 327.85,-59.2"/>
<polygon fill="black" stroke="black" points="328.71,-62.6 337.81,-57.17 327.31,-55.74 328.71,-62.6"/>
</g>
<!-- F -->
<g id="node6" class="node">
<title>F</title>
<path fill="none" stroke="black" d="M626.5,-175.45C626.5,-175.45 489.5,-175.45 489.5,-175.45 483.5,-175.45 477.5,-169.45 477.5,-163.45 477.5,-163.45 477.5,-151.45 477.5,-151.45 477.5,-145.45 483.5,-139.45 489.5,-139.45 489.5,-139.45 626.5,-139.45 626.5,-139.45 632.5,-139.45 638.5,-145.45 638.5,-151.45 638.5,-151.45 638.5,-163.45 638.5,-163.45 638.5,-169.45 632.5,-175.45 626.5,-175.45"/>
<text text-anchor="middle" x="558" y="-160.85" font-family="Noto Sans CJK SC" font-size="12.00">SUCCESS</text>
<text text-anchor="middle" x="558" y="-147.85" font-family="Noto Sans CJK SC" font-size="12.00">Bill/Position ACCOUNTED</text>
</g>
<!-- C&#45;&gt;F -->
<g id="edge3" class="edge">
<title>C&#45;&gt;F</title>
<path fill="none" stroke="black" d="M409.18,-157.45C425.52,-157.45 446.38,-157.45 467.23,-157.45"/>
<polygon fill="black" stroke="black" points="467.45,-160.95 477.45,-157.45 467.45,-153.95 467.45,-160.95"/>
</g>
<!-- G -->
<g id="node7" class="node">
<title>G</title>
<path fill="none" stroke="black" d="M652,-121.45C652,-121.45 464,-121.45 464,-121.45 458,-121.45 452,-115.45 452,-109.45 452,-109.45 452,-97.45 452,-97.45 452,-91.45 458,-85.45 464,-85.45 464,-85.45 652,-85.45 652,-85.45 658,-85.45 664,-91.45 664,-97.45 664,-97.45 664,-109.45 664,-109.45 664,-115.45 658,-121.45 652,-121.45"/>
<text text-anchor="middle" x="558" y="-106.85" font-family="Noto Sans CJK SC" font-size="12.00">FAILED</text>
<text text-anchor="middle" x="558" y="-93.85" font-family="Noto Sans CJK SC" font-size="12.00">Bill/Position ACCOUNTING_FAILED</text>
</g>
<!-- D&#45;&gt;G -->
<g id="edge5" class="edge">
<title>D&#45;&gt;G</title>
<path fill="none" stroke="black" d="M409.18,-103.45C418.77,-103.45 429.91,-103.45 441.7,-103.45"/>
<polygon fill="black" stroke="black" points="441.73,-106.95 451.73,-103.45 441.73,-99.95 441.73,-106.95"/>
</g>
<!-- H -->
<g id="node8" class="node">
<title>H</title>
<path fill="none" stroke="black" d="M623.5,-43.45C623.5,-43.45 492.5,-43.45 492.5,-43.45 486.5,-43.45 480.5,-37.45 480.5,-31.45 480.5,-31.45 480.5,-19.45 480.5,-19.45 480.5,-13.45 486.5,-7.45 492.5,-7.45 492.5,-7.45 623.5,-7.45 623.5,-7.45 629.5,-7.45 635.5,-13.45 635.5,-19.45 635.5,-19.45 635.5,-31.45 635.5,-31.45 635.5,-37.45 629.5,-43.45 623.5,-43.45"/>
<text text-anchor="middle" x="558" y="-28.85" font-family="Noto Sans CJK SC" font-size="12.00">query_attempt_count+1</text>
<text text-anchor="middle" x="558" y="-15.85" font-family="Noto Sans CJK SC" font-size="12.00">next_query_time</text>
</g>
<!-- E&#45;&gt;H -->
<g id="edge7" class="edge">
<title>E&#45;&gt;H</title>
<path fill="none" stroke="black" d="M415.13,-44.42C431.24,-42.27 450.77,-39.65 470.13,-37.07"/>
<polygon fill="black" stroke="black" points="470.77,-40.51 480.22,-35.72 469.84,-33.57 470.77,-40.51"/>
</g>
<!-- H&#45;&gt;B -->
<g id="edge8" class="edge">
<title>H&#45;&gt;B</title>
<path fill="none" stroke="black" d="M486.31,-7.36C442.57,0.62 385.84,5.09 338,-10.45 313.67,-18.35 290.43,-35.63 273.73,-50.39"/>
<polygon fill="black" stroke="black" points="271.1,-48.05 266.08,-57.38 275.82,-53.21 271.1,-48.05"/>
<text text-anchor="middle" x="376.5" y="-13.65" font-family="Noto Sans CJK SC" font-size="11.00">未超限</text>
</g>
<!-- I -->
<g id="node9" class="node">
<title>I</title>
<path fill="none" stroke="black" d="M828,-43.45C828,-43.45 743,-43.45 743,-43.45 737,-43.45 731,-37.45 731,-31.45 731,-31.45 731,-19.45 731,-19.45 731,-13.45 737,-7.45 743,-7.45 743,-7.45 828,-7.45 828,-7.45 834,-7.45 840,-13.45 840,-19.45 840,-19.45 840,-31.45 840,-31.45 840,-37.45 834,-43.45 828,-43.45"/>
<text text-anchor="middle" x="785.5" y="-28.85" font-family="Noto Sans CJK SC" font-size="12.00">超过5次或30分钟</text>
<text text-anchor="middle" x="785.5" y="-15.85" font-family="Noto Sans CJK SC" font-size="12.00">人工介入</text>
</g>
<!-- H&#45;&gt;I -->
<g id="edge9" class="edge">
<title>H&#45;&gt;I</title>
<path fill="none" stroke="black" d="M635.66,-25.45C663.27,-25.45 694.12,-25.45 720.54,-25.45"/>
<polygon fill="black" stroke="black" points="720.81,-28.95 730.81,-25.45 720.81,-21.95 720.81,-28.95"/>
<text text-anchor="middle" x="697.5" y="-28.65" font-family="Noto Sans CJK SC" font-size="11.00">超SLA</text>
</g>
</g>
</svg>
