<?xml version="1.0" encoding="UTF-8" standalone="no"?>
<!DOCTYPE svg PUBLIC "-//W3C//DTD SVG 1.1//EN"
 "http://www.w3.org/Graphics/SVG/1.1/DTD/svg11.dtd">
<!-- Generated by graphviz version 2.42.4 (0)
 -->
<!-- Title: G Pages: 1 -->
<svg width="976pt" height="55pt"
 viewBox="0.00 0.00 976.00 55.00" xmlns="http://www.w3.org/2000/svg" xmlns:xlink="http://www.w3.org/1999/xlink">
<g id="graph0" class="graph" transform="scale(1 1) rotate(0) translate(4 51)">
<title>G</title>
<polygon fill="white" stroke="transparent" points="-4,4 -4,-51 972,-51 972,4 -4,4"/>
<!-- A -->
<g id="node1" class="node">
<title>A</title>
<path fill="none" stroke="black" d="M89,-41.5C89,-41.5 12,-41.5 12,-41.5 6,-41.5 0,-35.5 0,-29.5 0,-29.5 0,-17.5 0,-17.5 0,-11.5 6,-5.5 12,-5.5 12,-5.5 89,-5.5 89,-5.5 95,-5.5 101,-11.5 101,-17.5 101,-17.5 101,-29.5 101,-29.5 101,-35.5 95,-41.5 89,-41.5"/>
<text text-anchor="middle" x="50.5" y="-20.4" font-family="Noto Sans CJK SC" font-size="12.00">结算确认主事务</text>
</g>
<!-- B -->
<g id="node2" class="node">
<title>B</title>
<path fill="none" stroke="black" d="M300,-41.5C300,-41.5 150,-41.5 150,-41.5 144,-41.5 138,-35.5 138,-29.5 138,-29.5 138,-17.5 138,-17.5 138,-11.5 144,-5.5 150,-5.5 150,-5.5 300,-5.5 300,-5.5 306,-5.5 312,-11.5 312,-17.5 312,-17.5 312,-29.5 312,-29.5 312,-35.5 306,-41.5 300,-41.5"/>
<text text-anchor="middle" x="225" y="-26.9" font-family="Noto Sans CJK SC" font-size="12.00">锁定头寸</text>
<text text-anchor="middle" x="225" y="-13.9" font-family="Noto Sans CJK SC" font-size="12.00">生成批次/结算单/明细/入账单</text>
</g>
<!-- A&#45;&gt;B -->
<g id="edge1" class="edge">
<title>A&#45;&gt;B</title>
<path fill="none" stroke="black" d="M101.39,-23.5C109.71,-23.5 118.57,-23.5 127.59,-23.5"/>
<polygon fill="black" stroke="black" points="127.81,-27 137.81,-23.5 127.81,-20 127.81,-27"/>
</g>
<!-- C -->
<g id="node3" class="node">
<title>C</title>
<path fill="none" stroke="black" d="M438,-41.5C438,-41.5 361,-41.5 361,-41.5 355,-41.5 349,-35.5 349,-29.5 349,-29.5 349,-17.5 349,-17.5 349,-11.5 355,-5.5 361,-5.5 361,-5.5 438,-5.5 438,-5.5 444,-5.5 450,-11.5 450,-17.5 450,-17.5 450,-29.5 450,-29.5 450,-35.5 444,-41.5 438,-41.5"/>
<text text-anchor="middle" x="399.5" y="-20.4" font-family="Noto Sans CJK SC" font-size="12.00">主事务提交成功</text>
</g>
<!-- B&#45;&gt;C -->
<g id="edge2" class="edge">
<title>B&#45;&gt;C</title>
<path fill="none" stroke="black" d="M312.25,-23.5C321.11,-23.5 329.97,-23.5 338.46,-23.5"/>
<polygon fill="black" stroke="black" points="338.61,-27 348.61,-23.5 338.61,-20 338.61,-27"/>
</g>
<!-- D -->
<g id="node4" class="node">
<title>D</title>
<path fill="none" stroke="black" d="M563,-41.5C563,-41.5 499,-41.5 499,-41.5 493,-41.5 487,-35.5 487,-29.5 487,-29.5 487,-17.5 487,-17.5 487,-11.5 493,-5.5 499,-5.5 499,-5.5 563,-5.5 563,-5.5 569,-5.5 575,-11.5 575,-17.5 575,-17.5 575,-29.5 575,-29.5 575,-35.5 569,-41.5 563,-41.5"/>
<text text-anchor="middle" x="531" y="-20.4" font-family="Noto Sans CJK SC" font-size="12.00">afterCommit</text>
</g>
<!-- C&#45;&gt;D -->
<g id="edge3" class="edge">
<title>C&#45;&gt;D</title>
<path fill="none" stroke="black" d="M450.2,-23.5C458.91,-23.5 468.01,-23.5 476.82,-23.5"/>
<polygon fill="black" stroke="black" points="476.98,-27 486.98,-23.5 476.98,-20 476.98,-27"/>
</g>
<!-- E -->
<g id="node5" class="node">
<title>E</title>
<path fill="none" stroke="black" d="M796,-41.5C796,-41.5 624,-41.5 624,-41.5 618,-41.5 612,-35.5 612,-29.5 612,-29.5 612,-17.5 612,-17.5 612,-11.5 618,-5.5 624,-5.5 624,-5.5 796,-5.5 796,-5.5 802,-5.5 808,-11.5 808,-17.5 808,-17.5 808,-29.5 808,-29.5 808,-35.5 802,-41.5 796,-41.5"/>
<text text-anchor="middle" x="710" y="-20.4" font-family="Noto Sans CJK SC" font-size="12.00">REQUIRES_NEW/异步写操作日志</text>
</g>
<!-- D&#45;&gt;E -->
<g id="edge4" class="edge">
<title>D&#45;&gt;E</title>
<path fill="none" stroke="black" d="M575.3,-23.5C583.57,-23.5 592.55,-23.5 601.83,-23.5"/>
<polygon fill="black" stroke="black" points="601.98,-27 611.98,-23.5 601.98,-20 601.98,-27"/>
</g>
<!-- F -->
<g id="node6" class="node">
<title>F</title>
<path fill="none" stroke="black" d="M956,-47C956,-47 879,-47 879,-47 873,-47 867,-41 867,-35 867,-35 867,-12 867,-12 867,-6 873,0 879,0 879,0 956,0 956,0 962,0 968,-6 968,-12 968,-12 968,-35 968,-35 968,-41 962,-47 956,-47"/>
<text text-anchor="middle" x="917.5" y="-33.4" font-family="Noto Sans CJK SC" font-size="12.00">日志失败</text>
<text text-anchor="middle" x="917.5" y="-20.4" font-family="Noto Sans CJK SC" font-size="12.00">只记录错误指标</text>
<text text-anchor="middle" x="917.5" y="-7.4" font-family="Noto Sans CJK SC" font-size="12.00">不回滚主事务</text>
</g>
<!-- E&#45;&gt;F -->
<g id="edge5" class="edge">
<title>E&#45;&gt;F</title>
<path fill="none" stroke="black" d="M808.03,-23.5C824.58,-23.5 841.33,-23.5 856.55,-23.5"/>
<polygon fill="black" stroke="black" points="856.83,-27 866.83,-23.5 856.83,-20 856.83,-27"/>
<text text-anchor="middle" x="837.5" y="-26.7" font-family="Noto Sans CJK SC" font-size="11.00">失败</text>
</g>
</g>
</svg>
